<ttFont>
          <CharString index="0">
            -91 callsubr
            170 73 callsubr
            -50 73 -216 -124 -75 -48 -77 -103 callgsubr
            return
          </CharString>
          <CharString index="1">
            -103 callsubr
            -73 callgsubr
            -33 -16 callgsubr
            vhcurveto
            endchar
          </CharString>
          <CharString index="2">
            rmoveto
            -86 -20 74 111 hvcurveto
            66 hlineto
            116 104 32 105 114 -114 38 -115 -159 -101 -93 -156 -165 104 -84 175 119 74 67 107 19 hvcurveto
            -18 3 -2 -9 rlineto
            -88 -18 -65 -56 -79 hhcurveto
            -107 275 rmoveto
            155 21 26 37 27 20 -27 -106 -73 -17 -47 -63 vhcurveto
            -25 hlineto
            return
          </CharString>
          <CharString index="3">
            rmoveto
            -82 -8 84 143 92 1 123 94 -99 callsubr
            -159 -105 -90 -159 -160 102 -89 160 101 73 73 101 12 hvcurveto
            -39 callsubr
            return
          </CharString>
          <CharString index="4">
            rmoveto
            -33 27 -28 34 -74 callsubr
            -34 -16 callgsubr
            vhcurveto
            -62 callgsubr
            return
          </CharString>
          <CharString index="5">
            rmoveto
            hintmask 01011100
            463 vlineto
            hintmask 10101100
            -80 callsubr
            hintmask 01011100
            251 -15 callsubr
            -16 45 callgsubr
            -121 35 -85 121 70 44 33 18 callsubr
            hintmask 01101100
            -78 251 16 vlineto
            return
          </CharString>
          <CharString index="6">
            -100 -49 41 16 15 callgsubr
            4 8 2 -6 -7 7 hvcurveto
            -8 8 10 -8 21 hhcurveto
            40 27 29 40 46 -35 29 -41 -56 -30 -42 -46 -93 122 -19 68 181 81 59 81 hvcurveto
            return
          </CharString>
          <CharString index="7">
            -60 callgsubr
            565 25 -102 callsubr
            return
          </CharString>
          <CharString index="8">
            62 40 -33 -49 17 hvcurveto
            -46 callgsubr
            -7 -2 6 7 -2 vhcurveto
            -78 callgsubr
            61 -53 75 -123 return
          </CharString>
          <CharString index="9">
            -90 callgsubr
            hintmask 01010001
            -41 callsubr
            hintmask 11001001
            3 callgsubr
            hintmask 11001101
            -67 callsubr
            hintmask 01001001
            -35 callgsubr
            hintmask 00110011
            80 -36 69 -81 vhcurveto
            return
          </CharString>
          <CharString index="10">
            142 -10 49 -30 14 307 14 342 14 hstemhm
            94 35 callgsubr
            hintmask 01111110
            346 330 rmoveto
            -50 callsubr
            -24 -66 vvcurveto
            hintmask 10111110
            -87 callgsubr
            38 -36 32 vhcurveto
            -47 40 -67 16 -61 -3 rrcurveto
            121 11 98 46 118 1 callsubr
            -14 64 hlineto
            hintmask 01111110
            -663 -64 -14 331 14 -63 307 vlineto
            356 vmoveto
            33 hlineto
            70 51 -32 -142 -86 0 -82 -108 hvcurveto
            -46 hlineto
            return
          </CharString>
          <CharString index="11">
            -53 callgsubr
            hintmask 10110101
            315 467 -106 callgsubr
            return
          </CharString>
          <CharString index="12">
            -83 callgsubr
            -504 245 rmoveto
            -47 callsubr
            60 -16 47 -24 37 vhcurveto
            -11 27 33 -9 35 hhcurveto
            53 52 18 26 39 hvcurveto
            -368 -643 14 -9 423 737 -17 7 -9 -16 rlineto
            -27 -13 -59 -75 -115 -113 -56 91 -100 hhcurveto
            -118 -86 -96 -137 hvcurveto
            151 -7 callgsubr
            endchar
          </CharString>
          <CharString index="13">
            -117 vhcurveto
            -215 -62 -16 309 16 -62 257 vlineto
            121 -35 85 -121 -70 -44 return
          </CharString>
          <CharString index="14">
            -57 -40 -38 0 hvcurveto
            14 -15 rlineto
            0 33 33 49 vhcurveto
            59 37 -32 55 hhcurveto
            endchar
          </CharString>
          <CharString index="15">
            -9 -2 -11 -9 -11 2 12 11 -1 vhcurveto
            26 -3 -20 29 -43 hhcurveto
            -44 -29 -38 -39 -42 37 -40 47 61 34 49 50 hvcurveto
            return
          </CharString>
          <CharString index="16">
            -54 callsubr
            -17 -45 -26 hhcurveto
            -14 -4 18 23 hvcurveto
            return
          </CharString>
          <CharString index="17">
            -48 callgsubr
            hvcurveto
            -79 callgsubr
            return
          </CharString>
          <CharString index="18">
            -659 72 callgsubr
            216 vlineto
            102 20 111 51 45 4 -81 -117 vhcurveto
            -215 -62 -16 309 16 -62 257 vlineto
            return
          </CharString>
          <CharString index="19">
            -239 2 callgsubr
            hstemhm
            31 28 42 189 hintmask 10100100
            hintmask 10010100
            290 488 rmoveto
            hintmask 10101100
            -76 callgsubr
            hintmask 11101100
            -91 callgsubr
            hintmask 10101100
            -38 callgsubr
            return
          </CharString>
          <CharString index="20">
            -5 -69 hhcurveto
            -60 return
          </CharString>
          <CharString index="21">
            4 -6 2 -4 -71 callsubr
            -27 -31 -40 -45 35 -30 43 54 31 42 48 hvcurveto
            return
          </CharString>
          <CharString index="22">
            102 20 137 51 45 4 -77 -94 callsubr
            -33 54 callsubr
            return
          </CharString>
          <CharString index="23">
            176 -104 186 -239 -45 callsubr
            -176 104 -191 239 return
          </CharString>
          <CharString index="24">
            rmoveto
            298 -81 5 17 -298 82 rlineto
            endchar
          </CharString>
          <CharString index="25">
            -14 callsubr
            hstem
            30 51 callsubr
            339 14 -105 callsubr
            return
          </CharString>
          <CharString index="26">
            -79 callsubr
            -87 -106 -39 -129 -10 vhcurveto
            endchar
          </CharString>
          <CharString index="27">
            -54 callgsubr
            -17 71 -180 hlineto
            -102 -20 -123 -51 -45 -4 73 117 vhcurveto
            return
          </CharString>
          <CharString index="28">
            -7 6 -8 3 7 vvcurveto
            5 3 4 6 5 4 -2 -4 6 vhcurveto
            12 -9 20 -22 -37 vvcurveto
            return
          </CharString>
          <CharString index="29">
            -77 callsubr
            -16 hlineto
            -157 -31 -112 44 callsubr
            335 33 hlineto
            85 51 -48 -98 hvcurveto
            17 305 -17 hlineto
            -106 -53 -37 -79 vhcurveto
            -37 308 44 callgsubr
            48 -71 -141 hvcurveto
            16 228 -567 48 callsubr
            hlineto
            return
          </CharString>
          <CharString index="30">
            87 -49 callgsubr
            94 -56 callgsubr
            30 9 rmoveto
            586 285 return
          </CharString>
          <CharString index="31">
            hlineto
            -102 callgsubr
            return
          </CharString>
          <CharString index="32">
            rmoveto
            22 19 20 22 23 19 -20 -22 -23 -19 -20 -23 -22 -19 20 23 vhcurveto
            -18 hmoveto
            -34 26 -27 33 34 26 27 34 33 -26 27 -34 -33 -26 -27 -33 vhcurveto
            endchar
          </CharString>
          <CharString index="33">
            33 27 28 33 33 -27 27 -33 return
          </CharString>
          <CharString index="34">
            vstem
            -31 callsubr
            -99 callgsubr
            -63 callgsubr
            return
          </CharString>
          <CharString index="35">
            -102 callgsubr
            hlineto
            return
          </CharString>
          <CharString index="36">
            -5 vvcurveto
            -6 -4 -3 -5 -7 -3 8 7 -6 vhcurveto
            7 -6 -15 13 -23 hhcurveto
            -39 return
          </CharString>
          <CharString index="37">
            -6 3 -4 3 5 vvcurveto
            4 3 5 6 2 4 -1 -2 5 vhcurveto
            46 -19 18 -47 -44 vvcurveto
            -29 -7 -29 -13 -25 vhcurveto
            -33 -64 -79 -33 -39 -11 rrcurveto
            return
          </CharString>
          <CharString index="38">
            5 -10 50 -50 57 206 18 8 148 41 20 return
          </CharString>
          <CharString index="39">
            1 callgsubr
            -29 callsubr
            vhcurveto
            -70 callgsubr
            endchar
          </CharString>
          <CharString index="40">
            48 39 32 55 47 -37 31 -42 -42 -26 -34 -33 -20 11 -23 20 -13 hvcurveto
            5 -3 3 -2 -5 vvcurveto
            -4 73 callgsubr
            -3 -5 2 2 -3 vhcurveto
            return
          </CharString>
          <CharString index="41">
            -36 callgsubr
            54 -41 41 -54 -52 -42 -41 -54 vhcurveto
            return
          </CharString>
          <CharString index="42">
            -45 callgsubr
            247 186 vlineto
            hintmask 11011000
            -85 callsubr
            -5 98 hlineto
            hintmask 10111000
            -72 callsubr
            return
          </CharString>
          <CharString index="43">
            557 -68 callgsubr
            return
          </CharString>
          <CharString index="44">
            -18 19 702 -56 callsubr
            return
          </CharString>
          <CharString index="45">
            122 -57 56 -64 -52 -38 -33 -52 -45 33 -34 43 41 31 27 40 30 -16 19 -24 8 vhcurveto
            -7 2 -6 2 7 vvcurveto
            6 5 3 61 callsubr
            -1 -1 4 vhcurveto
            46 -13 30 -60 -76 vvcurveto
            -108 -50 -137 -69 -71 -48 127 245 vhcurveto
            44 vlineto
            return
          </CharString>
          <CharString index="46">
            67 callgsubr
            313 16 -62 vlineto
            return
          </CharString>
          <CharString index="47">
            394 25 rmoveto
            -86 659 84 16 -362 -16 74 -659 -74 -16 364 hlineto
            return
          </CharString>
          <CharString index="48">
            -65 callgsubr
            428 75 16 return
          </CharString>
          <CharString index="49">
            -137 283 -33 -100 vvcurveto
            -46 -57 -17 -53 vhcurveto
            return
          </CharString>
          <CharString index="50">
            rmoveto
            -47 23 41 -24 62 hhcurveto
            134 61 115 134 return
          </CharString>
          <CharString index="51">
            19 hstem
            22 222 262 222 vstem
            return
          </CharString>
          <CharString index="52">
            -57 callsubr
            134 -47 return
          </CharString>
          <CharString index="53">
            -18 2 rlineto
            -55 -6 return
          </CharString>
          <CharString index="54">
            -127 -128 -13 -84 -39 -37 -39 60 125 vhcurveto
            return
          </CharString>
          <CharString index="55">
            -19 callgsubr
            19 -20 return
          </CharString>
          <CharString index="56">
            9 16 426 18 -21 callgsubr
            92 19 -10 189 11 18 60 callgsubr
            hintmask 1101110110000000
            433 414 rmoveto
            -389 -62 -16 313 16 -62 443 vlineto
            return
          </CharString>
          <CharString index="57">
            22 14 -3 -4 12 hvcurveto
            16 -5 14 -10 8 -14 rrcurveto
            15 -24 4 return
          </CharString>
          <CharString index="58">
            337 160 rmoveto
            -50 -18 -70 -44 return
          </CharString>
          <CharString index="59">
            -53 42 -42 53 53 42 42 53 return
          </CharString>
          <CharString index="60">
            -138 89 -94 120 120 89 94 138 return
          </CharString>
          <CharString index="61">
            278 42 65 79 79 42 -65 -278 return
          </CharString>
          <CharString index="62">
            -239 -104 -196 -166 return
          </CharString>
          <CharString index="63">
            rmoveto
            3 callsubr
            14 callgsubr
            247 hlineto
            return
          </CharString>
          <CharString index="64">
            91 24 112 52 45 7 -76 -53 callsubr
            return
          </CharString>
          <CharString index="65">
            -32 -51 hvcurveto
            hintmask 1111111010000000
            -92 callsubr
            60 callgsubr
            52 return
          </CharString>
          <CharString index="66">
            -14 -67 -72 -26 callsubr
            72 -16 hlineto
            -217 33 -137 175 -57 vhcurveto
            return
          </CharString>
          <CharString index="67">
            5 4 -3 -3 5 hvcurveto
            23 -14 22 -29 -44 vvcurveto
            -120 -121 -45 -46 -12 vhcurveto
            return
          </CharString>
          <CharString index="68">
            -18 hlineto
            -2 -10 rlineto
            -72 -14 -48 -64 -74 hhcurveto
            return
          </CharString>
          <CharString index="69">
            550 rmoveto
            -240 -57 -20 240 20 -57 346 vlineto
            -9 -29 -40 -40 callgsubr
            return
          </CharString>
          <CharString index="70">
            189 -158 24 252 189 return
          </CharString>
          <CharString index="71">
            25 66 -20 8 -37 -98 -35 callsubr
            return
          </CharString>
          <CharString index="72">
            17 -18 rlineto
            23 15 33 17 31 hhcurveto
            60 22 -56 -32 return
          </CharString>
          <CharString index="73">
            -60 -51 -35 -63 -54 44 -44 56 59 27 41 43 40 -22 21 -29 10 hvcurveto
            -6 2 -2 3 5 -9 callgsubr
            3 4 -1 -1 4 vhcurveto
            return
          </CharString>
          <CharString index="74">
            -2 -4 -3 -2 -5 -12 callgsubr
            7 7 10 3 4 3 hvcurveto
            0 31 15 49 vvcurveto
            55 -44 31 -45 -56 -37 -45 -48 -61 50 -46 60 vhcurveto
            return
          </CharString>
          <CharString index="75">
            55 36 52 74 vhcurveto
            -34 callgsubr
            return
          </CharString>
          <CharString index="76">
            247 629 rmoveto
            -169 -484 rlineto
            return
          </CharString>
          <CharString index="77">
            rmoveto
            -474 -21 474 hlineto
            endchar
          </CharString>
          <CharString index="78">
            60 46 42 62 45 -36 47 -56 -45 -42 -31 -52 -37 16 -24 25 -10 return
          </CharString>
          <CharString index="79">
            31 -24 164 119 162 -50 30 hintmask 10011001
            return
          </CharString>
          <CharString index="80">
            16 -38 hlineto
            -243 686 rlineto
            return
          </CharString>
          <CharString index="81">
            -87 callsubr
            -16 return
          </CharString>
          <CharString index="82">
            213 -164 144 -203 -42 callgsubr
            hvcurveto
            return
          </CharString>
          <CharString index="83">
            -26 callsubr
            71 return
          </CharString>
          <CharString index="84">
            -13 callgsubr
            34 20 hstemhm
            return
          </CharString>
          <CharString index="85">
            -3 -1 -2 -9 -9 hhcurveto
            -6 -3 61 callsubr
            return
          </CharString>
          <CharString index="86">
            -38 26 -33 45 36 25 28 33 26 -19 28 -31 -21 -15 -8 -22 -8 vhcurveto
            -3 -1 -1 -9 -8 48 callgsubr
            return
          </CharString>
          <CharString index="87">
            -10 callsubr
            hstemhm
            90 189 hintmask 11010000
            return
          </CharString>
          <CharString index="88">
            -37 27 -32 42 38 28 28 31 32 -19 24 -34 -26 -17 -19 -26 -3 vhcurveto
            -5 -3 -4 -7 -5 -3 5 5 vhcurveto
            return
          </CharString>
          <CharString index="89">
            53 callgsubr
            91 24 113 52 45 7 -77 -53 callsubr
            endchar
          </CharString>
          <CharString index="90">
            hstemhm
            30 189 -158 24 return
          </CharString>
          <CharString index="91">
            17 callsubr
            -36 callsubr
            return
          </CharString>
          <CharString index="92">
            vlineto
            hintmask 10101100
            -54 callgsubr
            return
          </CharString>
          <CharString index="93">
            -10 24 185 18 253 18 return
          </CharString>
          <CharString index="94">
            -428 -62 -16 return
          </CharString>
          <CharString index="95">
            -193 634 -66 callsubr
            endchar
          </CharString>
          <CharString index="96">
            16 278 146 4 16 1 18 hstemhm
            81 185 return
          </CharString>
          <CharString index="97">
            -235 43 callsubr
            return
          </CharString>
          <CharString index="98">
            9 16 659 16 return
          </CharString>
          <CharString index="99">
            -10 rmoveto
            66 callsubr
            hvcurveto
            -91 callsubr
            return
          </CharString>
          <CharString index="100">
            -52 -51 -38 -63 -43 33 -49 59 43 42 30 58 return
          </CharString>
          <CharString index="101">
            134 -47 114 -4 callgsubr
            return
          </CharString>
          <CharString index="102">
            rmoveto
            233 21 -233 hlineto
            return
          </CharString>
          <CharString index="103">
            202 -3 callgsubr
            return
          </CharString>
          <CharString index="104">
            25 rmoveto
            -62 -16 315 16 -64 694 hlineto
            -93 callgsubr
            hlineto
            return
          </CharString>
          <CharString index="105">
            23 callsubr
            4 callsubr
            return
          </CharString>
          <CharString index="106">
            rmoveto
            474 21 -474 hlineto
            474 165 -30 callsubr
          </CharString>
          <CharString index="107">
            rmoveto
            -34 -42 -36 -8 -36 -76 -63 44 -76 hhcurveto
            return
          </CharString>
          <CharString index="108">
            vvcurveto
            147 -118 36 -174 vhcurveto
            -342 return
          </CharString>
          <CharString index="109">
            -11 -1 2 -12 -11 hhcurveto
            -9 -2 11 9 hvcurveto
            return
          </CharString>
          <CharString index="110">
            -93 callgsubr
            -659 return
          </CharString>
          <CharString index="111">
            37 53 36 10 40 65 75 -44 80 hhcurveto
            43 return
          </CharString>
          <CharString index="112">
            134 40 53 80 88 vvcurveto
            72 -41 63 -83 return
          </CharString>
          <CharString index="113">
            vlineto
            123 -48 61 -123 vhcurveto
            return
          </CharString>
          <CharString index="114">
            -278 -42 -70 -79 return
          </CharString>
          <CharString index="115">
            122 111 91 165 10 hvcurveto
            -21 hlineto
            -88 -72 -145 -132 -106 -38 return
          </CharString>
          <CharString index="116">
            -14 11 13 -8 15 hhcurveto
            32 20 29 23 32 -25 25 -34 -38 -33 -24 -44 return
          </CharString>
          <CharString index="117">
            19 190 204 190 19 cntrmask 00111000
            return
          </CharString>
          <CharString index="118">
            rmoveto
            20 -8 361 648 -21 6 rlineto
            return
          </CharString>
          <CharString index="119">
            129 -172 17 13 -119 159 return
          </CharString>
          <CharString index="120">
            151 116 151 return
          </CharString>
          <CharString index="121">
            -224 18 24 151 return
          </CharString>
          <CharString index="122">
            75 -136 23 callgsubr
            81 -66 41 -56 vhcurveto
            return
          </CharString>
          <CharString index="123">
            9 16 409 54 -35 16 return
          </CharString>
          <CharString index="124">
            rmoveto
            -19 -28 -6 -11 -17 hvcurveto
            return
          </CharString>
          <CharString index="125">
            65 26 vhcurveto
            5 hlineto
            return
          </CharString>
          <CharString index="126">
            50 44 25 62 vhcurveto
            return
          </CharString>
          <CharString index="127">
            194 -71 18 29 147 -74 146 39 18 hintmask 01001001
            hintmask 00110011
            return
          </CharString>
          <CharString index="128">
            91 8 32 35 68 vvcurveto
            57 -47 54 -125 -77 -58 -41 -59 vhcurveto
            return
          </CharString>
          <CharString index="129">
            -26 -27 12 21 -12 hvcurveto
            -1 2 -1 2 2 -9 callgsubr
            return
          </CharString>
          <CharString index="130">
            -47 -35 -12 -37 -57 hvcurveto
            8 -16 rlineto
            return
          </CharString>
          <CharString index="131">
            20 12 20 hstemhm
            return
          </CharString>
          <CharString index="132">
            -53 -42 -42 -53 return
          </CharString>
          <CharString index="133">
            53 -42 42 -53 return
          </CharString>
          <CharString index="134">
            hlineto
            hintmask 01011000
            52 151 rlineto
            -22 hlineto
            hintmask 01101000
            -52 -151 rlineto
            return
          </CharString>
          <CharString index="135">
            -45 callsubr
            -215 109 -152 239 return
          </CharString>
          <CharString index="136">
            25 callsubr
            hvcurveto
            endchar
          </CharString>
          <CharString index="137">
            4 12 20 7 11 hhcurveto
            40 18 -43 -32 -54 -35 -27 -47 return
          </CharString>
          <CharString index="138">
            26 callsubr
            vhcurveto
            hintmask 01100000
            29 callsubr
          </CharString>
          <CharString index="139">
            153 187 187 152 return
          </CharString>
          <CharString index="140">
            14 -6 16 -15 -21 287 15 return
          </CharString>
          <CharString index="141">
            rlineto
            -67 42 33 -6 48 hhcurveto
            59 return
          </CharString>
          <CharString index="142">
            66 -51 53 -68 -70 -38 -51 -52 return
          </CharString>
          <CharString index="143">
            54 34 30 78 3 vhcurveto
            return
          </CharString>
          <CharString index="144">
            hlineto
            -84 -80 25 99 66 return
          </CharString>
          <CharString index="145">
            189 -3 callgsubr
            return
          </CharString>
          <CharString index="146">
            hstemhm
            81 46 callgsubr
            return
          </CharString>
          <CharString index="147">
            55 31 44 45 56 -45 37 -48 -61 -46 -49 -60 return
          </CharString>
          <CharString index="148">
            -167 456 rlineto
            81 16 -371 -16 58 hlineto
            return
          </CharString>
          <CharString index="149">
            283 rmoveto
            144 37 60 47 70 -61 26 -56 return
          </CharString>
          <CharString index="150">
            9 -52 callsubr
            return
          </CharString>
          <CharString index="151">
            -210 vhcurveto
            -61 return
          </CharString>
          <CharString index="152">
            189 67 return
          </CharString>
          <CharString index="153">
            23 -4 19 134 140 -137 109 return
          </CharString>
          <CharString index="154">
            -70 -44 -23 -65 -26 return
          </CharString>
          <CharString index="155">
            -16 64 -659 -64 return
          </CharString>
          <CharString index="156">
            hlineto
            -103 54 -43 73 return
          </CharString>
          <CharString index="157">
            -10 rmoveto
            136 83 172 148 hvcurveto
            return
          </CharString>
          <CharString index="158">
            202 105 182 vstem
            return
          </CharString>
          <CharString index="159">
            189 116 185 return
          </CharString>
          <CharString index="160">
            226 21 hstem
            return
          </CharString>
          <CharString index="161">
            -65 -26 vhcurveto
            return
          </CharString>
          <CharString index="162">
            -67 -89 -22 -20 -7 vhcurveto
            5 -17 rlineto
            return
          </CharString>
          <CharString index="163">
            16 hstemhm
            40 71 callsubr
            189 return
          </CharString>
          <CharString index="164">
            -248 rmoveto
            57 2 53 49 58 vvcurveto
            return
          </CharString>
          <CharString index="165">
            74 callgsubr
            180 37 415 45 return
          </CharString>
          <CharString index="166">
            hintmask 1110101110000000
            return
          </CharString>
          <CharString index="167">
            463 vlineto
            return
          </CharString>
          <CharString index="168">
            5 4 3 return
          </CharString>
          <CharString index="169">
            -62 callgsubr
            vhcurveto
            return
          </CharString>
          <CharString index="170">
            -767 -64 -14 326 14 -64 return
          </CharString>
          <CharString index="171">
            hhcurveto
            -5 -3 61 callsubr
            1 3 return
          </CharString>
          <CharString index="172">
            hstemhm
            -47 133 -133 679 return
          </CharString>
          <CharString index="173">
            102 34 65 90 11 return
          </CharString>
          <CharString index="174">
            62 -48 42 -53 vhcurveto
            return
          </CharString>
          <CharString index="175">
            -10 -4 -2 -5 return
          </CharString>
          <CharString index="176">
            -16 322 16 return
          </CharString>
          <CharString index="177">
            45 48 39 53 return
          </CharString>
          <CharString index="178">
            202 124 return
          </CharString>
          <CharString index="179">
            -16 326 16 return
          </CharString>
          <CharString index="180">
            vlineto
            157 return
          </CharString>
        <CharString name=".notdef">
          -399 endchar
        </CharString>
        <CharString name=".null">
          -599 endchar
        </CharString>
        <CharString name="A">
          15 9 16 119 146 37 19 hstemhm
          -79 26 5 133 hintmask 10110000
          77 145 rmoveto
          hintmask 10101000
          -86 callgsubr
          61 173 102 -40 64 -110 39 -91 rlinecurve
          22 -61 rlineto
          248 -27 callsubr
          -83 -12 -55 -27 -9 hvcurveto
          -102 -294 rlineto
          7 -23 -24 4 -26 hhcurveto
          hintmask 11110000
          -104 -46 -60 -52 58 callgsubr
          -25 31 -39 -23 -17 -11 -13 -9 hvcurveto
          -9 -6 -1 -6 -8 48 callgsubr
          5 2 4 4 6 hvcurveto
          13 9 26 39 84 hhcurveto
          23 22 -4 -6 20 hvcurveto
          25 12 rmoveto
          54 153 101 -287 -37 57 -51 52 -67 25 rlinecurve
          endchar
        </CharString>
        <CharString name="AE">
          313 -49 callgsubr
          372 -56 callgsubr
          226 347 rmoveto
          146 -322 -74 -16 596 291 -14 hlineto
          -159 -33 -116 44 callsubr
          322 33 hlineto
          85 54 -50 -99 hvcurveto
          14 309 -14 hlineto
          -108 -56 -38 -79 vhcurveto
          -37 323 44 callgsubr
          50 -72 -143 hvcurveto
          14 231 -377 hlineto
          -58 -34 -17 -47 -27 hvcurveto
          -305 -516 rlineto
          -76 -44 -33 -19 -88 hhcurveto
          -16 286 16 -38 vlineto
          -58 -44 33 80 46 hvcurveto
          125 211 rlineto
          139 236 rmoveto
          7 -224 -139 hlineto
          endchar
        </CharString>
        <CharString name="Aacute">
          -82 callgsubr
          362 591 -95 callgsubr
        </CharString>
        <CharString name="Acircumflex">
          13 9 16 222 16 hstemhm
          -47 132 -132 679 hintmask 11010000
          76 145 rmoveto
          hintmask 11100000
          -78 -27 -13 -42 -83 hhcurveto
          -16 257 16 -35 vlineto
          -51 -39 10 51 15 8 28 5 15 hvcurveto
          35 103 rlineto
          165 hlineto
          77 -222 rlineto
          -65 69 callsubr
          -42 hlineto
          -239 686 rlineto
          -75 -15 -42 -34 -12 hvcurveto
          -33 -150 rmoveto
          77 -222 rlineto
          -154 hlineto
          165 573 -94 callgsubr
        </CharString>
        <CharString name="Adieresis">
          13 callgsubr
          490 121 hstem
          -47 133 67 19 callgsubr
          -73 callsubr
          193 551 -106 callsubr
        </CharString>
        <CharString name="Agrave">
          -82 callgsubr
          18 573 -83 callsubr
        </CharString>
        <CharString name="Aring">
          13 callgsubr
          490 18 85 18 hstem
          -47 133 160 18 83 18 -73 callsubr
          124 551 -75 callsubr
        </CharString>
        <CharString name="Atilde">
          13 callgsubr
          510 20 12 20 65 callsubr
          hintmask 11010100
          -31 callsubr
          hintmask 11011000
          -99 callgsubr
          hintmask 11010100
          -63 callgsubr
          hintmask 11110100
          233 510 -92 callgsubr
          hintmask 11010100
          -93 callsubr
        </CharString>
        <CharString name="B">
          127 9 16 352 34 50 185 49 24 hstemhm
          91 24 -12 204 145 204 -172 210 hintmask 11010110
          337 54 callgsubr
          hintmask 11111010
          -138 -108 -42 -106 -66 callgsubr
          53 16 69 35 106 hhcurveto
          100 44 -49 -75 -114 -104 -46 -100 hvcurveto
          hintmask 11010101
          -56 -54 14 38 -35 hvcurveto
          -438 -74 -16 341 vlineto
          175 149 44 158 126 -136 48 -121 2 hvcurveto
          6 vlineto
          hintmask 11010110
          166 21 53 79 77 vvcurveto
          104 -103 45 -216 vhcurveto
          hintmask 11010101
          147 -516 rmoveto
          -97 -26 -81 -121 vhcurveto
          -30 352 24 hlineto
          77 76 -27 -147 hvcurveto
          endchar
        </CharString>
        <CharString name="C">
          30 -10 23 429 193 59 25 hstemhm
          38 222 328 20 0 21 hintmask 11111000
          608 552 rmoveto
          71 -70 96 -157 28 callsubr
          vhcurveto
          hintmask 11110100
          8 callsubr
          129 211 261 41 80 102 vhcurveto
          hintmask 11111000
          -30 callgsubr
          hvcurveto
          endchar
        </CharString>
        <CharString name="Ccedilla">
          52 -18 19 702 19 -18 -20 hstemhm
          31 222 380 19 hintmask 11011000
          252 349 rmoveto
          248 41 103 103 117 44 -161 -104 30 vhcurveto
          13 284 -13 hlineto
          hintmask 10111000
          0 -10 -35 -36 vhcurveto
          -54 -19 35 -95 hhcurveto
          28 callsubr
          8 callsubr
          125 211 vhcurveto
          106 -402 -16 callsubr
          68 callsubr
          -58 callgsubr
          70 callsubr
          62 -48 42 -53 hvcurveto
          endchar
        </CharString>
        <CharString name="D">
          163 9 16 436 185 49 24 hstemhm
          85 24 -12 204 211 222 hintmask 10101100
          302 695 rmoveto
          112 98 -62 -270 -256 -64 -82 -114 hvcurveto
          -33 444 hlineto
          -5 callgsubr
          -439 -64 -16 321 vlineto
          276 104 160 194 194 -132 162 -285 hvcurveto
          hintmask 11110100
          -113 -119 -40 -108 -66 callgsubr
          hintmask 10101100
          53 16 69 35 106 hhcurveto
          endchar
        </CharString>
        <CharString name="DEL">
          -599 endchar
        </CharString>
        <CharString name="Delta">
          77 9 19 hstem
          45 20 vstem
          646 9 rmoveto
          19 vlineto
          -279 681 rlineto
          -79 hlineto
          -243 -681 rlineto
          -19 vlineto
          378 19 rmoveto
          -358 hlineto
          170 474 rlineto
          endchar
        </CharString>
        <CharString name="E">
          -64 -49 callgsubr
          1253 -56 callgsubr
          309 54 callgsubr
          -142 -109 -71 -106 -72 58 -78 134 -4 hvcurveto
          3 -9 rlineto
          -145 -20 -72 -77 -92 vvcurveto
          -99 74 -101 176 175 81 78 96 61 -42 38 -47 -58 -30 -39 -40 -52 35 -30 39 30 35 18 38 6 -1 7 -1 2 vhcurveto
          -1 3 -1 2 3 vvcurveto
          15 callgsubr
          6 7 6 -7 -21 -70 -56 -63 -88 -99 -23 90 76 93 36 54 137 67 vhcurveto
          -8 17 rlineto
          -9 -20 -23 -13 -21 hhcurveto
          -76 -42 68 69 84 59 61 79 66 47 -50 -54 -24 -11 -20 -10 -6 -4 4 5 3 1 3 2 3 hvcurveto
          4 7 rlineto
          3 6 2 8 8 vvcurveto
          31 -28 28 -38 -46 -30 -35 -40 -55 42 -28 43 51 44 34 61 105 -115 33 -86 vhcurveto
          endchar
        </CharString>
        <CharString name="Eacute">
          -77 callgsubr
          472 833 -95 callgsubr
        </CharString>
        <CharString name="Ecircumflex">
          -78 callsubr
          331 811 -94 callgsubr
        </CharString>
        <CharString name="Edieresis">
          -77 callgsubr
          343 793 -106 callsubr
        </CharString>
        <CharString name="Egrave">
          -78 callsubr
          161 821 -83 callsubr
        </CharString>
        <CharString name="Eth">
          163 0 14 342 21 309 14 hstem
          50 callgsubr
          212 222 vstem
          351 hmoveto
          277 104 161 196 196 -105 147 -286 hvcurveto
          -311 -14 64 -309 -64 -21 64 -342 -64 -14 hlineto
          268 14 rmoveto
          342 108 21 -108 309 40 vlineto
          99 73 -71 -258 -258 -64 -85 -115 hvcurveto
          endchar
        </CharString>
        <CharString name="Euro">
          -64 -10 28 202 16 44 16 192 20 hstem
          68 199 195 16 vstem
          10 280 rmoveto
          56 -20 hlineto
          -24 -56 -16 58 vlineto
          -145 14 90 -85 121 hhcurveto
          81 93 35 139 18 hvcurveto
          -18 hlineto
          -3 -1 -4 -3 vvcurveto
          -50 -5 -46 -86 -73 hhcurveto
          -67 -7 90 112 -1 hvcurveto
          126 16 -126 22 hlineto
          22 126 16 -126 vlineto
          134 3 19 58 64 hhcurveto
          79 18 -108 -65 12 hvcurveto
          16 193 -16 hlineto
          -19 -10 -6 -14 -8 -8 1 3 -8 vhcurveto
          9 -21 -27 12 -36 hhcurveto
          -133 -113 -75 -137 -16 hvcurveto
          -58 hlineto
          endchar
        </CharString>
        <CharString name="F">
          -25 -49 callgsubr
          50 callgsubr
          177 19 75 19 vstem
          362 25 rmoveto
          -64 315 40 hlineto
          79 33 -37 -86 hvcurveto
          16 262 -16 hlineto
          -86 -33 -37 -79 vhcurveto
          -40 312 hlineto
          17 109 28 15 71 hhcurveto
          64 31 -47 -24 -5 73 callgsubr
          -8 -1 9 5 -2 hvcurveto
          7 -3 -14 36 -57 hhcurveto
          -51 -33 -44 -46 -55 46 -38 49 60 47 49 63 75 -58 39 -62 hvcurveto
          -96 -67 -37 -129 hhcurveto
          -59 -58 4 13 -63 hvcurveto
          -4 -16 rlineto
          0 25 -6 40 -6 vhcurveto
          -646 -64 -16 332 vlineto
          endchar
        </CharString>
        <CharString name="G">
          116 -274 20 27 182 35 23 258 16 155 193 59 25 hstemhm
          28 222 60 27 120 189 -38 20 hintmask 1011011101000000
          441 -274 rmoveto
          hintmask 1011011110000000
          122 83 84 161 hvcurveto
          300 52 16 -289 -16 48 -246 vlineto
          -8 -19 -21 -4 -23 hhcurveto
          -106 -38 136 211 281 71 53 102 hvcurveto
          hintmask 1011111101000000
          -30 callgsubr
          71 -70 96 -157 -269 -104 -196 -166 -215 109 -152 239 hvcurveto
          hintmask 1011011110000000
          28 27 5 9 26 hvcurveto
          0 96 -22 -117 vvcurveto
          -59 -35 -60 -81 -48 -37 32 21 -11 vhcurveto
          hintmask 1111011101000000
          -2 4 -2 5 3 vvcurveto
          5 2 6 8 7 3 -8 -4 2 vhcurveto
          -9 5 21 -28 39 hhcurveto
          40 callsubr
          hvcurveto
          hintmask 1011011101000000
          -81 74 -39 57 vhcurveto
          endchar
        </CharString>
        <CharString name="H">
          190 -10 33 -14 16 318 21 -17 20 308 44 -35 16 hstemhm
          -34 20 131 204 149 204 70 20 hintmask 0110011111000000
          764 585 rmoveto
          hintmask 0110101111000000
          74 -44 60 -90 -138 -22 -98 -126 vhcurveto
          -125 vlineto
          -26 -2 -26 -2 -26 -1 -24 -2 -24 -1 -23 -1 rrcurveto
          hintmask 1010011111000000
          323 64 16 -342 -16 74 -346 vlineto
          -91 -23 -60 -49 -111 vvcurveto
          -90 55 -75 110 148 42 88 126 vhcurveto
          138 vlineto
          75 3 rlineto
          hintmask 0101011111000000
          25 1 24 2 25 2 rrcurveto
          -325 -64 -16 332 16 -64 379 vlineto
          hintmask 0110011111000000
          55 35 35 55 91 vvcurveto
          hintmask 1010101111000000
          -684 -562 rmoveto
          -55 -39 61 77 92 52 43 79 22 hvcurveto
          -238 vlineto
          -20 -6 -37 -31 vhcurveto
          594 599 rmoveto
          44 4 9 19 22 25 -34 -54 -76 -27 -49 -43 -32 vhcurveto
          endchar
        </CharString>
        <CharString name="I">
          -183 9 16 567 20 41 186 20 19 hstemhm
          85 210 -191 204 14 19 hintmask 11010010
          hintmask 11010110
          40 598 rmoveto
          -4 22 21 -2 21 hhcurveto
          -567 -74 -16 364 16 -86 630 vlineto
          hintmask 11010010
          21 24 12 32 42 vvcurveto
          72 -54 53 -78 vhcurveto
          hintmask 11011010
          -81 -43 -62 -58 hvcurveto
          hintmask 11111010
          -51 37 -54 69 vhcurveto
          hintmask 11110110
          55 49 34 68 48 -40 36 -47 hvcurveto
          hintmask 11111010
          -17 -14 -7 -2 -4 hvcurveto
          hintmask 11011010
          -1 -6 -5 -5 64 callsubr
          2 2 hvcurveto
          8 8 23 9 22 hhcurveto
          hintmask 11010010
          65 48 -45 -64 -98 -82 -40 -118 hvcurveto
          hintmask 11010110
          -26 -28 1 4 -28 hvcurveto
          endchar
        </CharString>
        <CharString name="Iacute">
          -64 callgsubr
          -22 847 -95 callgsubr
        </CharString>
        <CharString name="Icircumflex">
          -64 callgsubr
          -184 827 -94 callgsubr
        </CharString>
        <CharString name="Idieresis">
          -175 9 14 663 14 55 62 callgsubr
          55 121 -72 204 -73 121 hintmask 11101000
          394 23 rmoveto
          -86 663 84 14 -362 -14 74 -663 -74 -14 364 hlineto
          -159 807 rmoveto
          -33 27 -28 34 vhcurveto
          hintmask 11100100
          -74 callsubr
          hvcurveto
          hintmask 11101000
          -34 -16 callgsubr
          hvcurveto
          hintmask 11110000
          62 callsubr
          hintmask 11101000
          -73 callgsubr
          hvcurveto
          hintmask 11110000
          -33 -16 callgsubr
          hvcurveto
          endchar
        </CharString>
        <CharString name="Igrave">
          -64 callgsubr
          -334 841 -83 callsubr
        </CharString>
        <CharString name="Itilde">
          -175 -9 callsubr
          75 24 callsubr
          104 204 hintmask 11011000
          -60 callsubr
          hintmask 11111000
          -111 766 -92 callgsubr
          hintmask 11011000
          -93 callsubr
        </CharString>
        <CharString name="J">
          -139 -110 33 233 28 500 16 hstemhm
          -67 19 28 182 33 205 hintmask 11110100
          147 -110 rmoveto
          185 68 108 140 hvcurveto
          546 84 16 -362 -16 73 -608 vlineto
          -93 -23 -60 -80 -70 -70 52 82 42 24 32 19 15 vhcurveto
          hintmask 11111100
          4 5 10 6 5 hhcurveto
          6 5 -3 -7 -7 -10 -3 -4 -3 hvcurveto
          -5 -3 -27 -16 -44 vvcurveto
          -55 44 -31 45 56 37 45 48 61 -49 46 -60 vhcurveto
          hintmask 11110100
          -81 -39 -72 -57 -72 53 -93 161 hvcurveto
          endchar
        </CharString>
        <CharString name="Jcircumflex">
          -139 -205 19 28 182 662 14 177 -20 hstemhm
          10 29 102 205 hintmask 10111100
          64 800 -68 callgsubr
          -108 -1082 rmoveto
          122 83 84 161 hvcurveto
          646 84 14 -362 -14 73 -613 vlineto
          0 112 -22 -117 vvcurveto
          -59 -35 -61 -81 -48 -36 30 22 -10 vhcurveto
          hintmask 11111100
          -2 5 -2 4 3 vvcurveto
          3 2 6 7 7 4 -11 -1 1 vhcurveto
          0 15 -33 49 40 callsubr
          vhcurveto
          hintmask 10111100
          -81 74 -39 57 vhcurveto
          endchar
        </CharString>
        <CharString name="K">
          128 -10 54 -35 13 341 19 114 176 15 13 -7 19 hstemhm
          111 204 74 194 -143 212 -43 19 67 17 hintmask 0110101001100000
          hintmask 0110101010100000
          476 391 rmoveto
          hintmask 0110011001100000
          117 47 35 83 66 vvcurveto
          70 -48 55 -78 vhcurveto
          hintmask 0110011101100000
          -60 -53 -50 -59 hvcurveto
          hintmask 0111101101100000
          -54 37 -53 64 55 38 43 51 44 -34 38 -47 vhcurveto
          -22 -12 -11 -7 -12 callgsubr
          7 hvcurveto
          hintmask 0110011101100000
          13 34 9 18 vhcurveto
          hintmask 0110011001100000
          65 40 -45 -64 -122 -134 -79 -160 -1 hvcurveto
          hintmask 0110101010100000
          305 47 13 -315 -13 64 -665 -64 -13 331 13 -63 341 vlineto
          91 4 34 -71 -107 vvcurveto
          hintmask 1010101010100000
          -125 35 -74 103 110 24 43 93 vhcurveto
          -17 hlineto
          -69 -12 -13 -12 -16 -3 18 81 vhcurveto
          hintmask 0110101010100000
          117 -40 97 -134 29 vhcurveto
          endchar
        </CharString>
        <CharString name="L">
          24 -23 19 13 16 180 21 458 16 hstemhm
          50 callgsubr
          116 184 21 19 hintmask 01111010
          298 684 rmoveto
          84 16 -352 48 callsubr
          -16 121 hlineto
          185 32 -32 116 hhcurveto
          hintmask 11111010
          112 42 66 70 55 -40 58 -72 -63 -49 -44 -60 hvcurveto
          hintmask 01111110
          -49 38 -46 55 46 45 33 51 58 -43 16 -17 1 vhcurveto
          -5 -4 4 6 15 callgsubr
          5 8 7 -1 -4 10 hvcurveto
          hintmask 11111010
          31 -13 25 -36 -41 vvcurveto
          -72 -52 -42 -85 -72 -61 18 5 -51 vhcurveto
          endchar
        </CharString>
        <CharString name="Lslash">
          10 9 14 465 -20 218 14 hstem
          50 callgsubr
          268 13 vstem
          30 9 rmoveto
          549 345 -13 hlineto
          -194 -83 -137 -150 vhcurveto
          -35 377 hlineto
          165 66 rlineto
          22 vlineto
          -165 -66 rlineto
          264 84 14 -352 -14 64 -346 vlineto
          -63 -25 rlineto
          -22 vlineto
          63 25 rlineto
          -295 -64 vlineto
          endchar
        </CharString>
        <CharString name="M">
          290 9 16 -7 33 633 16 hstemhm
          85 20 167 19 316 198 hintmask 10111100
          307 187 rmoveto
          hintmask 01111100
          -16 -26 -19 -31 -26 vvcurveto
          -64 52 -22 59 89 43 53 66 37 -23 52 0 vhcurveto
          -57 135 165 275 rlineto
          7 hlineto
          hintmask 10111100
          -611 -64 72 callsubr
          -64 659 64 16 -256 vlineto
          -187 -319 -134 319 rlineto
          -299 -16 hlineto
          61 31 -14 -58 hvcurveto
          -408 vlineto
          -132 -4 -44 -109 -3 vhcurveto
          -11 -16 281 16 -24 hlineto
          -109 -4 35 143 hvcurveto
          433 7 vlineto
          hintmask 01111100
          179 -531 rmoveto
          17 12 22 13 21 vhcurveto
          1 1 18 -41 rlineto
          1 -2 14 -35 -12 vvcurveto
          -15 -10 -10 -12 -16 -21 19 35 vhcurveto
          endchar
        </CharString>
        <CharString name="N">
          90 0 27 657 16 hstemhm
          -109 182 23 20 458 20 hintmask 11011000
          -81 callgsubr
          hintmask 11111000
          -33 callsubr
          hintmask 11011000
          81 34 62 57 hvcurveto
          endchar
        </CharString>
        <CharString name="Nacute">
          90 9 14 663 14 hstem
          96 18 461 18 vstem
          118 546 rmoveto
          293 -464 34 callsubr
          471 hlineto
          89 -2 117 128 vhcurveto
          14 -291 -14 vlineto
          103 44 -13 -187 hvcurveto
          -266 -6 -15 callgsubr
          -14 hlineto
          49 26 -53 -24 15 hvcurveto
          18 -28 rlineto
          -360 vlineto
          -149 -2 -49 -124 vhcurveto
          -14 291 14 vlineto
          -103 -44 13 187 hvcurveto
          323 vlineto
          428 310 -95 callgsubr
        </CharString>
        <CharString name="Ntilde">
          90 0 27 657 16 81 24 callsubr
          -109 182 23 20 458 20 hintmask 11010110
          -81 callgsubr
          hintmask 11011110
          -33 callsubr
          hintmask 11110110
          81 34 62 57 hvcurveto
          310 662 -92 callgsubr
          hintmask 11010110
          -93 callsubr
        </CharString>
        <CharString name="O">
          -18 -56 callsubr
          496 433 rmoveto
          1 -21 0 -31 -24 vvcurveto
          7 callsubr
          -79 -42 70 278 278 56 62 132 78 55 -35 -30 21 vhcurveto
          4 -5 4 -6 -6 vvcurveto
          -5 -4 -4 -6 -4 -4 2 7 -4 vhcurveto
          17 -11 -21 18 -31 hhcurveto
          -55 -31 -45 -45 -55 44 -41 56 60 44 52 54 90 -99 59 -115 -265 -126 -156 -206 -176 104 -191 239 -26 callgsubr
          68 -15 69 -32 60 hvcurveto
          -98 -20 -63 -29 -53 hhcurveto
          -14 -14 3 3 -12 hvcurveto
          endchar
        </CharString>
        <CharString name="OE">
          518 -18 19 -1 19 337 19 310 19 -1 19 hstem
          -293 222 262 222 112 -56 callgsubr
          404 700 rmoveto
          -1 hlineto
          -238 -1 -103 -185 -158 vvcurveto
          -166 104 -181 238 vhcurveto
          7 hlineto
          636 280 -15 hlineto
          -159 -32 -105 44 callsubr
          331 33 hlineto
          85 53 -49 -99 hvcurveto
          15 309 -15 hlineto
          -108 -55 -37 -79 vhcurveto
          -37 312 44 callgsubr
          49 -72 -143 hvcurveto
          15 231 -609 hlineto
          -15 -673 rmoveto
          -79 -42 67 262 264 42 62 79 79 41 -62 -264 -262 -41 -67 -79 hvcurveto
          endchar
        </CharString>
        <CharString name="Oacute">
          -104 callgsubr
          119 847 -95 callgsubr
        </CharString>
        <CharString name="Ocircumflex">
          -104 callgsubr
          1 827 -94 callgsubr
        </CharString>
        <CharString name="Odieresis">
          -104 callgsubr
          30 807 -106 callsubr
        </CharString>
        <CharString name="Ograve">
          -104 callgsubr
          -138 829 -83 callsubr
        </CharString>
        <CharString name="Omega">
          263 9 138 553 19 hstem
          98 222 222 222 vstem
          431 54 callgsubr
          -239 -94 -125 -174 -192 200 -28 43 -84 hvcurveto
          -8 -6 rlineto
          35 -49 -47 2 -37 hhcurveto
          -50 hlineto
          -38 -17 33 48 -9 hvcurveto
          -26 hlineto
          32 -219 rlineto
          297 hlineto
          17 23 rlineto
          -11 90 -75 70 223 vvcurveto
          195 32 90 79 79 32 -90 -195 -223 -75 -70 -11 -90 vhcurveto
          17 -23 rlineto
          297 hlineto
          32 219 rlineto
          -26 hlineto
          -48 -9 -17 -33 -38 hhcurveto
          -50 hlineto
          -37 -47 -2 -35 -49 hvcurveto
          -8 6 rlineto
          43 84 200 28 192 vvcurveto
          174 -94 125 -239 vhcurveto
          endchar
        </CharString>
        <CharString name="Oslash">
          -63 callsubr
          211 -99 rmoveto
          21 -7 38 109 rlineto
          -8 31 34 -5 38 hhcurveto
          -26 callgsubr
          136 -63 142 -138 57 hvcurveto
          35 100 -22 7 -35 -99 rlineto
          12 -35 -40 7 -45 hhcurveto
          -45 callsubr
          -142 68 -152 151 -53 hvcurveto
          3 347 rmoveto
          278 42 65 79 41 32 -18 -58 20 vhcurveto
          -188 -533 rlineto
          -17 54 -9 83 129 vvcurveto
          121 -348 rmoveto
          -35 -27 13 38 -20 hvcurveto
          186 525 rlineto
          11 -52 6 -73 -103 vvcurveto
          7 callsubr
          vhcurveto
          endchar
        </CharString>
        <CharString name="Otilde">
          -104 callgsubr
          77 766 -92 callgsubr
          -93 callsubr
        </CharString>
        <CharString name="P">
          38 9 16 280 19 137 185 48 25 hstemhm
          88 24 -18 204 154 215 hintmask 11010110
          94 25 rmoveto
          -64 -16 331 16 -63 280 123 hlineto
          189 57 97 113 152 -116 52 -224 hvcurveto
          hintmask 11111010
          -126 -113 -42 -106 -66 callgsubr
          53 16 71 34 90 hhcurveto
          87 74 -61 -118 -136 -18 -55 -125 hvcurveto
          -11 hlineto
          hintmask 11110110
          145 vlineto
          -5 callgsubr
          endchar
        </CharString>
        <CharString name="Q">
          -175 18 19 171 -43 19 98 82 511 19 hstemhm
          30 222 33 27 182 222 -152 190 hintmask 1010111100000000
          373 -10 rmoveto
          38 35 5 9 32 hvcurveto
          -80 32 22 -99 107 hhcurveto
          hintmask 1010111010000000
          58 57 46 65 hvcurveto
          hintmask 1100111010000000
          49 -35 48 -62 -55 -38 -40 -48 -38 28 -45 48 11 3 1 3 8 vhcurveto
          hintmask 1010111010000000
          2 5 3 3 5 hhcurveto
          5 4 -4 -5 -5 -2 -3 -11 -5 hvcurveto
          -4 -9 -12 -2 -11 hhcurveto
          -95 -7 90 88 -12 hvcurveto
          hintmask 1010111100000000
          132 62 59 141 133 vvcurveto
          -84 callsubr
          vhcurveto
          hintmask 1011111100000000
          19 199 rmoveto
          -57 -50 -48 -55 -6 1 -6 1 -6 hvcurveto
          -23 50 -12 90 149 vvcurveto
          -46 callsubr
          -87 -4 -67 -8 -50 vhcurveto
          22 -19 -28 14 -43 hhcurveto
          -19 -180 rmoveto
          -15 -14 2 6 -12 hvcurveto
          -14 9 -6 18 17 vvcurveto
          28 29 18 25 41 27 -21 -30 19 vhcurveto
          -35 -20 -27 -12 -33 hhcurveto
          endchar
        </CharString>
        <CharString name="R">
          142 -10 49 -30 16 308 17 111 185 46 27 hstemhm
          90 23 -19 35 callgsubr
          hintmask 0110101110000000
          452 521 rmoveto
          -86 0 -85 -108 vhcurveto
          -46 119 hlineto
          -5 callgsubr
          -439 -64 -16 331 16 -63 308 48 vlineto
          -50 callsubr
          -27 -66 vvcurveto
          hintmask 1011110110000000
          -87 callgsubr
          50 -36 32 vhcurveto
          36 -42 -56 10 -55 hhcurveto
          4 vlineto
          111 14 86 50 111 vvcurveto
          144 -112 49 -196 -103 -163 -22 -126 -61 46 -49 61 48 49 37 56 45 -32 47 -55 -49 -19 -30 -17 -5 vhcurveto
          -22 callsubr
          0 1 2 7 hvcurveto
          53 19 79 32 74 hhcurveto
          hintmask 0110101110000000
          107 58 -59 -112 hvcurveto
          endchar
        </CharString>
        <CharString name="Racute">
          -97 callsubr
          204 512 -95 callgsubr
        </CharString>
        <CharString name="Rcaron">
          -97 callsubr
          252 514 -80 callgsubr
        </CharString>
        <CharString name="Rcommaaccent">
          142 -248 18 28 156 36 49 -30 16 303 17 339 16 hstemhm
          50 callgsubr
          12 138 4 212 -197 18 238 18 hintmask 1001111001100000
          375 57 callsubr
          hintmask 1101111001100000
          50 -39 43 -53 vhcurveto
          hintmask 1101111101100000
          -42 -41 -36 -45 -41 36 -34 39 48 15 37 24 hvcurveto
          9 -4 7 4 vvcurveto
          6 5 3 5 vhcurveto
          hintmask 1101111001100000
          10 3 -19 -11 hvcurveto
          hintmask 1001111001100000
          -35 -37 -53 -56 vhcurveto
          -3 hlineto
          hintmask 1001111010100000
          96 576 rmoveto
          111 14 86 46 111 1 callsubr
          48 callsubr
          -16 331 16 -63 303 48 hlineto
          -50 callsubr
          -22 -66 vvcurveto
          hintmask 1010111010100000
          -87 callgsubr
          45 -36 32 vhcurveto
          hintmask 1001111010100000
          36 -42 -56 10 -55 hhcurveto
          -169 342 rmoveto
          33 hlineto
          70 51 -30 -142 -86 0 -81 -108 hvcurveto
          -46 hlineto
          endchar
        </CharString>
        <CharString name="S">
          44 -10 23 68 190 187 187 54 20 hstemhm
          47 34 -27 166 220 171 -64 29 hintmask 10010101
          hintmask 10011010
          303 -10 rmoveto
          170 138 79 146 hvcurveto
          hintmask 10010110
          242 -391 -39 184 vvcurveto
          57 45 40 86 vhcurveto
          hintmask 10110101
          104 68 -47 -32 19 hvcurveto
          3 -5 2 -5 -4 vvcurveto
          -7 -4 -4 -6 -6 -2 5 3 -2 vhcurveto
          29 -18 -24 13 -28 hhcurveto
          -53 -31 -43 -48 -56 41 -40 59 64 39 56 59 96 -120 50 -124 -144 -134 -86 -127 hvcurveto
          hintmask 10010110
          -260 386 31 -158 vvcurveto
          -76 -73 -30 -79 vhcurveto
          hintmask 11011001
          -82 -78 30 49 -37 hvcurveto
          -3 4 -7 11 6 vvcurveto
          7 5 3 5 7 2 -8 -7 5 vhcurveto
          -20 14 23 -7 19 hhcurveto
          58 29 51 42 55 -45 42 -52 -63 -41 -48 -58 hvcurveto
          hintmask 10011010
          -126 152 -49 104 vhcurveto
          endchar
        </CharString>
        <CharString name="Scaron">
          44 -10 18 693 18 hstemhm
          47 16 -10 166 214 170 -48 16 hintmask 11100100
          hintmask 11011000
          372 448 rmoveto
          -87 41 -66 37 74 vvcurveto
          80 51 21 56 vhcurveto
          hintmask 11010100
          117 82 -123 -104 30 hvcurveto
          16 245 -16 hlineto
          0 -10 -35 -36 vhcurveto
          -54 -45 35 -95 hhcurveto
          -146 -116 -79 -136 -129 97 -55 99 -47 hvcurveto
          hintmask 11101000
          87 -42 97 -35 -77 vvcurveto
          -80 -57 -31 -56 -150 -55 128 138 -52 vhcurveto
          -16 -284 16 hlineto
          0 21 38 35 vhcurveto
          54 53 -38 95 hhcurveto
          146 136 69 156 hvcurveto
          hintmask 11011000
          147 -132 39 -99 47 vhcurveto
          135 410 -80 callgsubr
        </CharString>
        <CharString name="T">
          -13 0 19 665 19 hstem
          25 10 callsubr
          569 599 rmoveto
          83 61 48 86 57 -43 58 -73 -57 -52 -39 -66 -50 39 -45 55 47 41 34 53 51 -38 14 -2 1 hvcurveto
          -5 2 -5 1 8 vvcurveto
          6 5 3 6 18 45 -34 -53 -72 -46 -44 -79 vhcurveto
          -121 -193 101 -143 hhcurveto
          -89 -66 -52 -76 -58 44 -54 61 63 37 39 53 51 -35 41 -51 -28 -30 -12 -31 -14 hvcurveto
          -9 -4 -1 -7 -9 hhcurveto
          -6 -3 4 6 31 47 55 83 38 42 -7 -11 43 hvcurveto
          -657 -74 -16 352 16 -74 596 vlineto
          -13 47 44 -9 40 hhcurveto
          endchar
        </CharString>
        <CharString name="T_h">
          708 0 19 666 19 hstem
          25 10 callsubr
          160 9 rmoveto
          352 14 -74 664 hlineto
          161 28 -246 -52 hvcurveto
          15 311 -612 -311 15 hlineto
          52 28 246 161 vhcurveto
          -664 -74 vlineto
          583 661 rmoveto
          -89 callsubr
          -85 callgsubr
        </CharString>
        <CharString name="Thorn">
          67 9 16 152 25 352 16 114 16 hstem
          95 189 155 202 vstem
          95 684 rmoveto
          -659 -67 -16 324 16 -68 163 vlineto
          -7 28 32 -4 36 hhcurveto
          156 105 62 142 127 -84 62 -202 hvcurveto
          -71 114 67 16 -324 -16 hlineto
          272 -130 rmoveto
          109 31 -46 -127 -131 -41 -48 -68 -14 -16 3 5 -16 hvcurveto
          344 vlineto
          endchar
        </CharString>
        <CharString name="U">
          86 -52 callgsubr
          658 449 rmoveto
          -191 -43 -226 -171 -138 -8 177 147 vhcurveto
          328 64 16 -332 -16 64 -335 vlineto
          -223 42 -136 247 270 25 281 178 162 -40 96 -108 -71 -45 -49 -60 -53 43 -47 54 63 34 43 46 45 -29 36 -41 vhcurveto
          -14 -4 -2 -4 hhcurveto
          -5 -4 4 6 9 10 3 20 88 33 -95 -144 hvcurveto
          endchar
        </CharString>
        <CharString name="Uacute">
          -97 callgsubr
          118 156 -95 callgsubr
        </CharString>
        <CharString name="Ucircumflex">
          -97 callgsubr
          -31 136 -94 callgsubr
        </CharString>
        <CharString name="Udieresis">
          -59 callgsubr
          -14 vlineto
          -94 -37 -69 -115 hvcurveto
          -200 vlineto
          -212 -54 -99 -196 -247 -42 135 223 vhcurveto
          337 -64 14 332 -14 -64 -330 vlineto
          -147 8 -186 138 151 20 138 142 vhcurveto
          199 6 callsubr
          14 vlineto
          -17 116 -106 callsubr
        </CharString>
        <CharString name="Ugrave">
          -97 callgsubr
          -226 138 -83 callsubr
        </CharString>
        <CharString name="V">
          42 21 -21 684 16 -13 22 hstemhm
          416 186 20 19 hintmask 11001000
          409 hmoveto
          210 516 rlineto
          13 32 9 28 23 vvcurveto
          hintmask 10101000
          48 -31 62 -83 vhcurveto
          hintmask 10111000
          -34 callsubr
          hintmask 10101000
          43 callgsubr
          -122 -292 rlineto
          -15 hlineto
          hintmask 11001000
          -182 495 rlineto
          81 16 -355 -16 58 hlineto
          227 -611 rlineto
          -46 17 25 -27 49 hhcurveto
          endchar
        </CharString>
        <CharString name="W">
          451 684 16 -13 22 hstemhm
          825 186 20 19 hintmask 10010000
          822 9 rmoveto
          206 507 rlineto
          13 32 9 28 23 vvcurveto
          hintmask 01010000
          48 -31 62 -83 vhcurveto
          hintmask 01110000
          -34 callsubr
          hintmask 01010000
          43 callgsubr
          -106 -253 rlineto
          -15 hlineto
          hintmask 10010000
          41 callsubr
          90 -238 -92 -218 rlineto
          -15 hlineto
          41 callsubr
          264 -675 rlineto
          81 hlineto
          170 412 165 -412 rlineto
          endchar
        </CharString>
        <CharString name="X">
          42 -10 19 0 16 4 168 305 169 13 16 -9 18 hstemhm
          -27 190 -190 723 -190 190 hintmask 1000100100000000
          hintmask 0100100100000000
          613 25 rmoveto
          -209 414 51 116 rlineto
          hintmask 1000010010000000
          75 33 27 61 71 hhcurveto
          18 14 -4 -5 10 hvcurveto
          6 -3 3 -2 -6 vvcurveto
          -5 -4 -4 -6 vhcurveto
          hintmask 1001100010000000
          -6 -12 9 -25 hhcurveto
          -46 -32 -42 -36 -58 44 -33 45 70 31 57 40 hvcurveto
          hintmask 1000010010000000
          85 -67 25 -42 -75 -33 -57 -60 -27 vhcurveto
          -59 -131 rlineto
          hintmask 1000101000000000
          -112 223 rlineto
          68 16 -361 -16 63 hlineto
          214 -425 -51 -115 rlineto
          -75 -33 -28 -60 -71 hhcurveto
          -17 -14 4 5 -10 hvcurveto
          hintmask 1010101000000000
          -7 3 -3 3 6 vvcurveto
          4 3 5 6 vhcurveto
          6 9 -10 29 hhcurveto
          46 33 41 36 58 -44 33 -45 -70 -31 -57 -40 hvcurveto
          hintmask 1000101000000000
          -85 67 -25 42 75 33 57 60 27 vhcurveto
          59 131 rlineto
          hintmask 0100100100000000
          107 -213 rlineto
          -66 -16 361 16 hlineto
          endchar
        </CharString>
        <CharString name="Y">
          -32 -9 callsubr
          -6 25 hstemhm
          206 204 -31 177 22 19 hintmask 11010100
          -20 callgsubr
          157 220 rlineto
          16 22 14 33 33 vvcurveto
          hintmask 10110100
          39 -18 74 -96 vhcurveto
          hintmask 10101100
          -60 -44 -38 -61 -48 37 -45 56 45 39 31 52 36 -16 14 -15 10 hvcurveto
          hintmask 10110100
          -9 6 -8 -1 10 vvcurveto
          15 callgsubr
          6 10 12 -7 -8 9 vhcurveto
          18 -17 11 -27 -30 vvcurveto
          -42 -20 -25 -11 -17 vhcurveto
          -146 -203 rlineto
          endchar
        </CharString>
        <CharString name="Yacute">
          44 0 14 672 14 hstem
          206 204 vstem
          234 686 rmoveto
          87 14 -361 -14 58 hlineto
          188 -402 rlineto
          -270 -64 -14 332 14 -64 286 vlineto
          142 325 rlineto
          41 20 36 20 65 hhcurveto
          14 -290 -14 28 vlineto
          74 31 -27 -42 -22 -7 65 callgsubr
          80 530 -95 callgsubr
        </CharString>
        <CharString name="Ydieresis">
          44 -9 callsubr
          55 62 callgsubr
          163 121 -78 204 -67 121 hintmask 11001000
          -20 callgsubr
          142 325 rlineto
          41 20 36 20 65 hhcurveto
          16 -290 -16 28 vlineto
          74 30 -24 -42 -22 -8 65 callgsubr
          hintmask 11110100
          -57 489 -106 callsubr
        </CharString>
        <CharString name="Z">
          54 -28 19 20 -21 210 25 260 188 14 19 4 19 hstemhm
          5 24 414 183 24 19 hintmask 1010011010000000
          -9 -10 rmoveto
          14 66 93 5 62 123 103 -37 73 hhcurveto
          93 65 49 88 55 -42 61 -72 hvcurveto
          hintmask 1010011110000000
          -63 -49 -47 -60 -49 38 -46 55 46 44 33 51 62 -48 11 1 hvcurveto
          -2 1 -8 1 8 vvcurveto
          6 69 callgsubr
          hintmask 1010101010000000
          24 48 -30 -64 -72 -49 -43 -91 -74 -79 32 5 -120 hvcurveto
          420 677 -7 14 rlineto
          -10 -81 -90 -3 -54 -108 -68 23 -89 hhcurveto
          hintmask 0111011010000000
          -89 -66 -52 -76 -58 42 -58 61 62 40 42 53 51 -35 42 -51 -28 -30 -12 -31 -14 hvcurveto
          -9 -4 -1 -7 -9 hhcurveto
          -6 -3 4 7 33 47 52 83 hvcurveto
          85 73 -23 83 hhcurveto
          -418 -681 rlineto
          endchar
        </CharString>
        <CharString name="Zcaron">
          54 9 16 656 19 hstem
          58 14 534 14 vstem
          58 387 rmoveto
          14 hlineto
          182 12 63 112 180 hhcurveto
          64 hlineto
          -371 -672 rlineto
          600 339 -14 hlineto
          -241 -114 -82 -182 vhcurveto
          -63 hlineto
          376 675 rlineto
          -565 hlineto
          474 158 -80 callgsubr
        </CharString>
        <CharString name="a">
          -107 callgsubr
          endchar
        </CharString>
        <CharString name="aacute">
          -107 callgsubr
          98 525 -95 callgsubr
        </CharString>
        <CharString name="acircumflex">
          -107 callgsubr
          -48 505 -94 callgsubr
        </CharString>
        <CharString name="acute">
          -271 530 99 hstem
          17 303 vstem
          315 629 -95 callgsubr
        </CharString>
        <CharString name="adieresis">
          -69 callsubr
          32 121 -17 callsubr
          67 19 callgsubr
          -116 8 callgsubr
          hintmask 1010100110110000
          -49 callsubr
          vhcurveto
          hintmask 1010101000110000
          -90 callsubr
          hintmask 0111100110110000
          -107 callsubr
          hintmask 1010101000110000
          -84 callgsubr
          hintmask 1010110111010000
          -18 477 -106 callsubr
        </CharString>
        <CharString name="ae">
          317 -10 21 188 18 36 18 8 148 41 20 hstemhm
          78 -37 callsubr
          121 182 59 callsubr
          308 488 rmoveto
          -124 -75 -48 -77 hvcurveto
          hintmask 1111101110000000
          -103 callgsubr
          hintmask 1110110110000000
          -47 callgsubr
          -96 100 -36 101 118 83 65 0 hvcurveto
          -43 37 66 -22 68 hhcurveto
          103 90 39 135 28 hvcurveto
          -18 3 rlineto
          -23 callgsubr
          -57 -58 -12 -21 -39 hvcurveto
          59 callsubr
          22 -41 -48 11 -83 hhcurveto
          266 -151 21 callgsubr
          hintmask 1110110110000000
          -307 -84 rmoveto
          98 55 25 63 -3 vhcurveto
          -120 vlineto
          -76 -18 -44 -44 -30 -26 30 90 vhcurveto
          endchar
        </CharString>
        <CharString name="agrave">
          -107 callgsubr
          -200 507 -83 callsubr
        </CharString>
        <CharString name="ampersand">
          62 -10 38 69 28 169 111 76 146 -60 28 70 24 hstemhm
          23 214 -190 181 74 31 21 146 -53 28 74 20 -20 146 21 28 hintmask 1011010110110100
          426 631 rmoveto
          19 -18 2 -7 -71 callsubr
          -28 -31 -40 -45 36 -30 43 54 31 42 48 23 -9 22 -15 17 hvcurveto
          38 -33 -61 18 -66 hhcurveto
          -159 -85 -85 -80 -67 53 -67 127 hvcurveto
          2 -10 rlineto
          hintmask 1010111010110100
          -131 -26 -75 -70 -94 vvcurveto
          -91 59 -109 233 191 63 106 83 49 -22 45 -30 17 vhcurveto
          0 61 callgsubr
          161 vvcurveto
          68 -44 55 -61 vhcurveto
          hintmask 1010110110101100
          -48 -42 -31 -54 -43 30 -35 45 40 31 27 39 23 -13 15 -7 6 hvcurveto
          hintmask 1110110110110100
          -79 callsubr
          -102 -106 -3 -107 -8 vhcurveto
          -89 -7 -112 -42 -115 vvcurveto
          -68 47 -51 61 vhcurveto
          hintmask 1111010111010100
          48 42 31 54 43 -30 35 -45 -40 -31 -27 -39 -23 13 -15 7 -6 hvcurveto
          hintmask 1111011010110100
          7 -6 8 -3 -7 vvcurveto
          -5 -3 -4 -6 -5 -4 2 4 -6 vhcurveto
          -12 9 -20 22 37 vvcurveto
          66 59 29 45 65 47 -39 -77 -99 -89 -51 -70 -98 -55 65 108 105 31 49 109 46 vhcurveto
          -5 18 rlineto
          hintmask 1011010110110100
          0 -35 -14 -25 -58 -26 62 58 103 44 37 55 39 39 -15 -19 21 vhcurveto
          endchar
        </CharString>
        <CharString name="apple">
          101 endchar
        </CharString>
        <CharString name="approxequal">
          -39 139 18 26 18 77 18 26 18 hstemhm
          47 480 hintmask 10101000
          515 338 0 callsubr
          hintmask 10111000
          -2 callsubr
          26 10 36 54 hvcurveto
          hintmask 10101000
          -12 -125 0 callsubr
          23 callsubr
          hintmask 11101000
          4 callsubr
          26 10 36 54 hvcurveto
          endchar
        </CharString>
        <CharString name="aring">
          -69 callsubr
          32 18 85 18 -17 callsubr
          146 18 83 18 -13 8 callgsubr
          hintmask 1010111011101000
          hintmask 1010111101011000
          -49 callsubr
          -48 callgsubr
          vhcurveto
          -79 callgsubr
          hintmask 0111111011011000
          -107 callsubr
          hintmask 1010111101011000
          -84 callgsubr
          hintmask 1010111011101000
          -101 477 -75 callsubr
        </CharString>
        <CharString name="asciicircum">
          -122 139 330 hstem
          86 345 vstem
          431 148 rmoveto
          -168 321 rlineto
          -11 hlineto
          -166 -320 15 -10 157 297 157 -297 rlineto
          endchar
        </CharString>
        <CharString name="asciitilde">
          -13 230 18 26 18 hstemhm
          52 480 hintmask 10100000
          520 290 0 callsubr
          hintmask 11100000
          -2 callsubr
          28 9 37 52 hvcurveto
          endchar
        </CharString>
        <CharString name="asterisk">
          -271 454 98 12 98 hstemhm
          116 96 hintmask 01100000
          212 671 rmoveto
          26 -21 22 -27 -27 -21 -22 -26 -39 45 -32 3 -24 vhcurveto
          2 24 46 32 39 vvcurveto
          -61 -107 rmoveto
          15 -27 0 83 -56 hhcurveto
          -24 -24 -19 -28 -30 23 -21 36 hvcurveto
          19 19 3 15 hhcurveto
          8 6 -1 -2 5 hvcurveto
          26 hmoveto
          2 5 6 1 8 15 19 -3 18 hhcurveto
          37 23 21 30 28 -24 19 -24 -56 0 -83 -15 -27 hvcurveto
          hintmask 10100000
          -26 -12 rmoveto
          -2 -5 -6 -2 -8 -15 -19 4 -19 hhcurveto
          -36 -23 -22 -29 -28 24 -19 24 56 0 83 15 27 hvcurveto
          -35 -107 rmoveto
          -27 21 -20 27 27 21 20 27 39 -46 30 -2 26 vhcurveto
          -3 -26 -45 -30 -39 vvcurveto
          61 107 rmoveto
          -15 27 0 -83 56 hhcurveto
          24 24 19 28 29 -23 22 -37 hvcurveto
          -18 -19 -4 -15 hhcurveto
          -8 -6 2 2 -5 hvcurveto
          endchar
        </CharString>
        <CharString name="at">
          235 -124 27 136 42 -42 46 168 18 4 122 32 21 133 27 hstemhm
          50 28 136 156 -132 20 208 156 134 28 hintmask 1011011101110000
          756 253 rmoveto
          -112 -71 -56 -38 -16 -9 12 24 vhcurveto
          139 vlineto
          129 -40 61 -179 -116 -49 -41 -61 vhcurveto
          hintmask 1010111101110000
          -38 30 -35 45 38 29 25 37 36 -29 24 -27 -10 -29 -3 -30 -8 vhcurveto
          -7 -1 -4 -4 -5 48 callgsubr
          7 6 22 19 13 hvcurveto
          15 22 34 10 40 hhcurveto
          87 0 -71 -60 hvcurveto
          hintmask 1101011110110000
          -27 vlineto
          -75 -177 -8 -115 -82 70 -27 68 86 28 44 51 13 hvcurveto
          5 hlineto
          hintmask 1011011101110000
          -48 4 41 -47 59 hhcurveto
          117 79 89 125 -25 callsubr
          -14 23 rlineto
          -25 -47 -57 -15 -31 callgsubr
          187 152 -133 -197 hvcurveto
          hintmask 1101011110110000
          -290 -74 rmoveto
          -40 -15 -58 -36 -24 -21 24 60 70 44 20 52 -2 vhcurveto
          endchar
        </CharString>
        <CharString name="atilde">
          -69 callsubr
          66 20 12 20 hstemhm
          30 -37 callsubr
          67 18 hintmask 1010101011100000
          -49 callsubr
          vhcurveto
          hintmask 1010101101100000
          -90 callsubr
          hintmask 0111101011100000
          -107 callsubr
          hintmask 1010111101100000
          -84 callgsubr
          26 450 -92 callgsubr
          hintmask 1010101011100000
          -93 callsubr
        </CharString>
        <CharString name="b">
          21 -10 37 -18 16 418 45 196 16 hstemhm
          75 38 callsubr
          hintmask 01111000
          hintmask 10111100
          269 61 -55 callsubr
          115 -43 callgsubr
          hlineto
          hintmask 01111000
          -659 -62 -16 251 vlineto
          hintmask 10111100
          52 vlineto
          -18 callsubr
        </CharString>
        <CharString name="backslash">
          -251 -121 821 hstem
          10 305 vstem
          29 700 rmoveto
          -19 -6 285 -815 20 7 rlineto
          endchar
        </CharString>
        <CharString name="bar">
          -237 -184 -21 hstem
          170 22 vstem
          192 54 callgsubr
          -22 -924 22 hlineto
          endchar
        </CharString>
        <CharString name="braceleft">
          -347 -205 20 callgsubr
          15 430 16 hstemhm
          -3 128 15 31 hintmask 11101000
          110 247 rmoveto
          51 15 10 35 42 66 -46 52 83 vvcurveto
          hintmask 11111000
          71 16 54 61 14 vhcurveto
          3 12 23 2 15 hhcurveto
          16 vlineto
          -145 -110 -62 -131 hvcurveto
          -129 143 -10 -64 vvcurveto
          -28 -19 -22 -56 vhcurveto
          hintmask 11101000
          -15 vlineto
          51 24 -19 -29 hvcurveto
          -64 -143 -10 -129 vvcurveto
          -131 110 -62 145 vhcurveto
          16 vlineto
          hintmask 11111000
          -15 -23 2 3 -12 hvcurveto
          -61 14 -16 54 71 83 46 52 66 vvcurveto
          42 -9 33 -52 16 vhcurveto
          endchar
        </CharString>
        <CharString name="braceright">
          -344 74 callgsubr
          431 13 429 16 hstemhm
          81 31 15 128 hintmask 11110000
          142 248 rmoveto
          -51 -15 -10 -35 -42 -66 46 -52 -83 vvcurveto
          hintmask 11111000
          -71 -16 -54 -61 -14 vhcurveto
          -3 -12 -23 -2 -15 hhcurveto
          -16 vlineto
          145 110 62 131 hvcurveto
          129 -143 10 64 vvcurveto
          28 19 23 56 vhcurveto
          hintmask 11110000
          13 vlineto
          -51 -24 20 29 hvcurveto
          64 143 10 129 vvcurveto
          131 -110 62 -145 vhcurveto
          -16 vlineto
          hintmask 11111000
          15 23 -2 -3 12 hvcurveto
          61 -14 16 -54 -71 -83 -46 -52 -66 vvcurveto
          -42 9 -33 52 -16 vhcurveto
          endchar
        </CharString>
        <CharString name="bracketleft">
          56 callgsubr
          60 130 vstem
          306 700 rmoveto
          -246 -914 246 16 -116 882 116 hlineto
          endchar
        </CharString>
        <CharString name="bracketright">
          56 callgsubr
          116 130 vstem
          116 -198 rmoveto
          -116 -16 246 914 -246 -16 116 hlineto
          endchar
        </CharString>
        <CharString name="breve">
          -312 531 20 hstem
          51 20 152 20 vstem
          147 531 rmoveto
          53 42 42 52 1 hvcurveto
          -20 hlineto
          -41 -2 -33 -33 -41 hhcurveto
          -41 -33 33 41 -2 hvcurveto
          -20 hlineto
          -52 1 42 -42 53 hhcurveto
          endchar
        </CharString>
        <CharString name="brokenbar">
          -378 -120 839 hstem
          100 22 vstem
          122 -120 rmoveto
          352 -22 -352 vlineto
          22 487 rmoveto
          352 -22 -352 vlineto
          endchar
        </CharString>
        <CharString name="bullet">
          -54 224 311 hstem
          122 299 vstem
          271 535 rmoveto
          -80 -69 -68 -89 -87 67 -67 82 80 70 67 87 89 -71 68 -79 hvcurveto
          endchar
        </CharString>
        <CharString name="c">
          -107 -10 28 244 148 50 28 hstem
          30 202 216 22 vstem
          322 18 -104 callsubr
          endchar
        </CharString>
        <CharString name="c_h">
          530 -10 28 -9 16 237 148 28 50 -28 28 196 16 hstemhm
          30 202 216 22 103 52 callsubr
          hintmask 1010111111000000
          322 18 -104 callsubr
          251 666 rmoveto
          hintmask 0111011111000000
          -89 callsubr
          hintmask 1010111111000000
          -85 callgsubr
        </CharString>
        <CharString name="c_t">
          260 -10 28 244 148 45 14 -9 28 290 18 hstemhm
          30 202 42 18 156 22 93 8 callgsubr
          hintmask 1001111111000000
          406 460 rmoveto
          -43 24 -71 49 88 vvcurveto
          76 69 81 140 147 53 -75 -80 vhcurveto
          hintmask 1010111111000000
          -76 -63 -44 callgsubr
          -95 75 -156 -142 -85 -82 -95 vhcurveto
          hintmask 1101111111000000
          -76 54 -60 50 -26 vhcurveto
          -56 -439 -104 callsubr
          endchar
        </CharString>
        <CharString name="caron">
          -136 525 94 hstem
          43 371 vstem
          414 602 -80 callgsubr
        </CharString>
        <CharString name="ccedilla">
          -84 -249 155 22 19 43 28 -1 -21 266 148 50 28 hstemhm
          20 202 -27 137 18 19 69 22 hintmask 0110111011000000
          312 18 -104 callsubr
          -44 -71 17 callsubr
          hintmask 0101111011000000
          -36 callsubr
          hvcurveto
          hintmask 1110111011000000
          68 callsubr
          vhcurveto
          hintmask 1110110111000000
          -58 callgsubr
          hvcurveto
          hintmask 1110111011000000
          70 callsubr
          hvcurveto
          hintmask 0110111011000000
          67 callsubr
          endchar
        </CharString>
        <CharString name="cedilla">
          -224 -249 155 22 19 70 -21 hstemhm
          125 137 18 19 hintmask 01101000
          198 -53 -16 callsubr
          hvcurveto
          hintmask 11101000
          68 callsubr
          vhcurveto
          hintmask 11111000
          -58 callgsubr
          hvcurveto
          hintmask 11101000
          70 callsubr
          hvcurveto
          hintmask 01101000
          67 callsubr
          endchar
        </CharString>
        <CharString name="cent">
          -69 19 28 206 148 50 28 hstem
          37 198 46 20 154 22 vstem
          301 -62 rmoveto
          81 vlineto
          100 1 72 72 12 101 rrcurveto
          -39 callsubr
          -62 -32 60 145 142 30 57 69 -99 callsubr
          hvcurveto
          91 -20 -92 vlineto
          -164 -7 -80 -102 -120 vvcurveto
          -121 81 -102 163 -7 vhcurveto
          -81 vlineto
          endchar
        </CharString>
        <CharString name="circumflex">
          -234 535 94 hstem
          -2 370 vstem
          183 609 -94 callgsubr
        </CharString>
        <CharString name="colon">
          -305 -10 190 -169 -21 308 68 callgsubr
          47 190 hintmask 01011000
          47 85 rmoveto
          -48 callsubr
          vhcurveto
          hintmask 10011000
          26 callsubr
          vhcurveto
          hintmask 01011000
          25 callsubr
          hvcurveto
          hintmask 01101000
          308 vmoveto
          -48 callsubr
          26 callsubr
          vhcurveto
          hintmask 01011000
          29 callsubr
        </CharString>
        <CharString name="comma">
          -269 11 -21 167 23 hstem
          54 177 34 18 vstem
          146 -144 rmoveto
          40 19 97 52 118 vvcurveto
          96 -70 39 -57 -60 -42 -42 -60 -29 callgsubr
          26 -33 -52 vvcurveto
          -107 -90 -50 -37 -17 vhcurveto
          endchar
        </CharString>
        <CharString name="copyright">
          212 -124 27 97 31 430 19 103 27 hstem
          50 28 134 162 198 13 148 28 vstem
          761 271 rmoveto
          203 -147 136 -197 -42 callgsubr
          vhcurveto
          -6 24 rlineto
          -25 -47 -65 -16 -31 callgsubr
          182 134 -126 -188 -147 -101 -91 -127 -95 -36 52 154 155 28 69 58 75 18 -105 -66 19 hvcurveto
          13 190 -13 hlineto
          0 -6 -27 -20 vhcurveto
          -22 -25 27 -52 hhcurveto
          -151 -84 -114 -113 -184 121 -69 140 193 95 126 145 hvcurveto
          endchar
        </CharString>
        <CharString name="currency">
          15 10 -21 34 63 305 63 35 -20 hstem
          102 152 106 152 vstem
          307 454 rmoveto
          -44 -46 -13 -30 -36 hvcurveto
          -81 78 -50 -46 89 -75 rlineto
          -23 -36 -14 -43 -42 vvcurveto
          -48 10 -49 30 -37 vhcurveto
          -89 -79 51 -45 79 81 rlineto
          -31 33 49 -16 42 hhcurveto
          42 49 16 31 33 hvcurveto
          79 -81 51 45 -89 79 rlineto
          30 37 10 49 48 vvcurveto
          42 -14 43 -23 36 vhcurveto
          89 75 -50 46 -81 -78 rlineto
          30 -36 -46 13 -44 hhcurveto
          -368 vmoveto
          -39 -14 68 84 84 14 69 39 39 14 -69 -84 -84 -14 -68 -39 hvcurveto
          endchar
        </CharString>
        <CharString name="d">
          22 -10 45 -26 16 426 37 196 56 callsubr
          hintmask 01111100
          555 54 callgsubr
          -93 callgsubr
          -267 32 callgsubr
          hvcurveto
          hintmask 10111100
          -134 57 -115 124 70 44 23 18 callsubr
          hintmask 01111100
          -69 251 16 -62 vlineto
          -185 214 rmoveto
          hintmask 10111100
          -91 -24 -113 -52 -45 -7 91 29 callgsubr
        </CharString>
        <CharString name="dagger">
          -52 433 17 hstem
          269 18 vstem
          269 -117 rmoveto
          18 hlineto
          28 475 rlineto
          49 3 6 26 29 32 17 -67 53 11 callgsubr
          -55 callgsubr
          53 17 67 32 hhcurveto
          29 6 -26 -49 3 hvcurveto
          endchar
        </CharString>
        <CharString name="daggerdbl">
          10 146 17 270 17 hstemhm
          247 60 -38 18 hintmask 11010000
          hintmask 11100000
          198 298 rmoveto
          21 -21 28 -32 -28 vvcurveto
          -39 -29 -15 -15 vhcurveto
          -32 -17 67 -53 12 callgsubr
          hintmask 11010000
          60 -6 64 68 hhcurveto
          32 14 -30 -16 hvcurveto
          -39 -65 -49 -61 55 callgsubr
          vhcurveto
          61 -65 49 39 vvcurveto
          16 14 30 32 vhcurveto
          68 -6 -64 60 11 callgsubr
          hintmask 11100000
          -53 -17 -67 -32 hhcurveto
          -15 -31 14 40 27 29 32 22 22 hvcurveto
          -22 22 -29 32 27 vvcurveto
          40 31 14 15 vhcurveto
          32 17 -67 53 11 callgsubr
          hintmask 11010000
          -55 callgsubr
          hintmask 11100000
          53 17 67 32 hhcurveto
          15 29 -15 -39 -28 -28 -32 -21 -21 hvcurveto
          endchar
        </CharString>
        <CharString name="degree">
          -319 436 31 170 31 hstem
          24 31 170 31 vstem
          24 552 rmoveto
          -64 52 -52 64 64 52 52 64 64 -52 52 -64 -64 -52 -52 -64 vhcurveto
          31 hmoveto
          47 38 38 47 47 38 -38 -47 -47 -38 -38 -47 -47 -38 38 47 vhcurveto
          endchar
        </CharString>
        <CharString name="dieresis">
          148 520 121 hstem
          224 19 callgsubr
          vstem
          404 581 -106 callsubr
        </CharString>
        <CharString name="divide">
          -91 -10 21 120 22 73 21 78 21 120 22 hstem
          172 21 120 22 vstem
          172 406 -37 callgsubr
          -21 -335 -37 callgsubr
          298 176 -30 callsubr
        </CharString>
        <CharString name="dollar">
          -130 -10 18 8 -21 339 148 8 18 hstemhm
          40 15 -13 116 69 20 -11 20 70 123 -40 16 hintmask 1001101001000000
          247 -62 rmoveto
          52 vlineto
          hintmask 1001100110000000
          111 3 91 44 119 vvcurveto
          108 -109 38 -84 39 vhcurveto
          148 vlineto
          hintmask 1011100101000000
          78 -8 63 -56 12 -91 rrcurveto
          16 173 -16 hlineto
          0 -3 -25 -29 -32 -46 18 6 -43 vhcurveto
          hintmask 1001010101000000
          64 -20 -62 -4 vlineto
          -105 -85 -52 -107 hvcurveto
          hintmask 1001011001000000
          -115 103 -46 82 -38 vhcurveto
          -142 vlineto
          hintmask 1001101001000000
          -92 1 -54 45 -26 131 rrcurveto
          -15 hlineto
          hintmask 0101101001000000
          -190 15 vlineto
          0 16 25 25 vhcurveto
          hintmask 1001011001000000
          23 42 -27 -3 66 hvcurveto
          -52 vlineto
          -69 496 rmoveto
          hintmask 1001010101000000
          37 35 18 43 1 vhcurveto
          -140 vlineto
          hintmask 1001011001000000
          -45 22 -33 24 38 vvcurveto
          hintmask 1001101010000000
          168 -363 rmoveto
          -48 -42 -12 -37 -3 vhcurveto
          133 vlineto
          44 -21 35 -20 -29 vvcurveto
          endchar
        </CharString>
        <CharString name="dotaccent">
          -394 530 189 hstem
          7 189 vstem
          7 624 -66 callsubr
          endchar
        </CharString>
        <CharString name="dotlessi">
          -299 9 17 callgsubr
          61 189 hintmask 11010000
          61 453 -74 callgsubr
          endchar
        </CharString>
        <CharString name="dotlessj">
          -88 callsubr
          endchar
        </CharString>
        <CharString name="e">
          -63 -82 callsubr
          endchar
        </CharString>
        <CharString name="eacute">
          -48 -14 callsubr
          hstem
          25 51 callsubr
          334 14 -105 callsubr
          194 412 -95 callgsubr
        </CharString>
        <CharString name="ecircumflex">
          -37 -14 callsubr
          hstem
          25 51 callsubr
          102 -64 callsubr
          47 -620 -105 callsubr
          endchar
        </CharString>
        <CharString name="edieresis">
          -53 -14 callsubr
          32 62 callgsubr
          20 202 -99 19 callgsubr
          -97 182 hintmask 11101001
          329 14 -105 callsubr
          hintmask 11110110
          81 364 -106 callsubr
        </CharString>
        <CharString name="egrave">
          -56 -82 callsubr
          -92 394 -83 callsubr
        </CharString>
        <CharString name="eight">
          -68 -10 21 637 31 hstemhm
          29 19 -5 192 97 170 -57 18 hintmask 11100100
          29 184 rmoveto
          -113 87 -81 138 vhcurveto
          hintmask 11101000
          164 84 100 111 90 -50 56 -57 45 hvcurveto
          hintmask 11010100
          41 33 27 47 50 vvcurveto
          85 -69 72 -137 -122 -92 -61 -115 -70 29 -51 39 -42 vhcurveto
          hintmask 11100100
          -57 -41 -25 -61 -54 vvcurveto
          hintmask 11101000
          303 -69 rmoveto
          -73 -49 -31 -59 -105 -71 78 96 46 26 58 51 38 vhcurveto
          85 -82 122 -45 -85 vvcurveto
          hintmask 11010100
          -97 449 rmoveto
          60 41 24 44 69 56 -51 -79 -48 -29 -39 -37 -27 vhcurveto
          -70 53 -74 39 68 vvcurveto
          endchar
        </CharString>
        <CharString name="ellipsis">
          217 -10 190 hstem
          53 190 70 190 70 190 cntrmask 01110000
          573 85 rmoveto
          -48 callsubr
          26 callsubr
          25 callsubr
          vhcurveto
          -260 hmoveto
          -48 callsubr
          26 callsubr
          25 callsubr
          vhcurveto
          -260 hmoveto
          -48 callsubr
          26 callsubr
          25 callsubr
          vhcurveto
          endchar
        </CharString>
        <CharString name="emdash">
          355 53 callsubr
          1 947 vstem
          948 247 rmoveto
          -947 -21 947 hlineto
          endchar
        </CharString>
        <CharString name="endash">
          -115 53 callsubr
          5 474 vstem
          479 247 -30 callsubr
        </CharString>
        <CharString name="equal">
          43 144 21 144 21 hstem
          83 474 vstem
          83 144 -1 callsubr
        </CharString>
        <CharString name="eth">
          12 -10 18 398 18 279 16 hstem
          20 71 callsubr
          193 vstem
          495 680 rmoveto
          -129 -52 -75 51 -95 31 -109 9 rlinecurve
          -4 -16 88 -16 69 -36 49 -54 rlinecurve
          -107 -43 8 -19 113 45 35 -45 22 -57 8 -67 rlinecurve
          -7 -4 rlineto
          0 -32 17 -56 -123 -130 -72 -145 -130 107 -87 149 188 75 174 127 141 -57 109 -96 73 vhcurveto
          117 47 rlineto
          -157 -454 rmoveto
          -148 -15 -51 -47 -47 -15 51 148 148 15 51 47 24 15 -13 -33 10 vhcurveto
          9 -31 4 -50 -72 vvcurveto
          endchar
        </CharString>
        <CharString name="exclam">
          -317 -10 190 -169 -21 hstemhm
          46 190 -104 18 hintmask 01010000
          150 224 rmoveto
          235 102 27 117 vvcurveto
          61 -35 55 -76 -76 -35 -55 -61 vhcurveto
          -117 102 -27 -235 vvcurveto
          hintmask 01100000
          -86 -139 rmoveto
          -48 callsubr
          vhcurveto
          hintmask 10100000
          31 callsubr
        </CharString>
        <CharString name="exclamdown">
          -317 298 68 callgsubr
          46 190 -103 18 hintmask 01010000
          133 254 rmoveto
          -235 -102 -27 -117 vvcurveto
          -61 35 -55 76 76 35 55 61 vhcurveto
          117 -102 27 235 vvcurveto
          hintmask 10100000
          -105 139 rmoveto
          -48 callsubr
          31 callsubr
        </CharString>
        <CharString name="f">
          -246 9 -19 callgsubr
          -21 callgsubr
          hintmask 11011100
          72 469 rmoveto
          -59 callsubr
          -49 37 callsubr
          52 42 51 43 44 -32 -51 hvcurveto
          hintmask 11111100
          -92 callsubr
          hintmask 11011100
          52 -42 51 -64 -119 -35 70 callgsubr
          endchar
        </CharString>
        <CharString name="f1_dotlessi">
          96 -51 callsubr
          -42 -40 -93 -12 -56 hhcurveto
          -43 37 rmoveto
          60 callgsubr
          190 71 56 93 35 callsubr
          hvcurveto
          -51 callgsubr
          -122 -18 -133 vhcurveto
          -91 37 callsubr
          52 42 51 43 44 -42 callsubr
          -42 51 -64 -119 -35 70 callgsubr
          -54 -65 callgsubr
          426 vlineto
          endchar
        </CharString>
        <CharString name="f1_dotlessj">
          104 14 callsubr
          40 16 426 18 -21 callgsubr
          38 28 26 19 -3 189 4 18 hintmask 1011011101010000
          651 600 rmoveto
          35 callsubr
          vhcurveto
          hintmask 1011111101010000
          -50 34 -49 61 vhcurveto
          hintmask 1011111100100000
          34 callgsubr
          hvcurveto
          hintmask 1011111101010000
          -43 -20 -29 -26 -3 hvcurveto
          2 callsubr
          hintmask 1011011101010000
          51 38 32 51 59 42 -47 -55 -112 -102 -18 -123 vhcurveto
          -121 37 callsubr
          50 42 51 41 48 -32 -51 hvcurveto
          hintmask 1011111101010000
          -92 callsubr
          hintmask 1011011101010000
          52 -48 51 -60 -119 -33 70 callgsubr
          -54 -65 callgsubr
          426 159 vlineto
          170 61 56 93 hvcurveto
          hintmask 1011011110100000
          -211 -186 rmoveto
          -403 vlineto
          1 7 2 0 5 hhcurveto
          81 39 -56 -55 -24 callgsubr
          hvcurveto
          hintmask 1111011110100000
          -91 callgsubr
          hintmask 1011011110100000
          -38 callgsubr
          478 vlineto
          -47 -41 -92 -7 -56 hhcurveto
          endchar
        </CharString>
        <CharString name="f_b">
          378 -10 37 -18 16 418 45 -35 16 34 -32 callgsubr
          124 202 hintmask 0101110011100000
          242 -69 callgsubr
          hintmask 1010110011110000
          -27 callgsubr
          13 -22 -27 6 -24 hhcurveto
          -114 -55 -79 -132 hvcurveto
          -39 -62 -16 62 vlineto
          hintmask 0101110011100000
          -13 callsubr
          326 vlineto
          hintmask 1010110011110000
          16 vlineto
          hintmask 0101101011100000
          -75 428 75 16 -57 hlineto
          hintmask 0101110011100000
          -89 -59 49 76 55 36 52 74 hvcurveto
          -34 callgsubr
          hintmask 0101101101100000
          36 callsubr
          36 callgsubr
          272 -541 -55 callsubr
          115 -43 callgsubr
          -659 -62 -16 251 hlineto
          hintmask 0101101011100000
          52 vlineto
          hintmask 1010110011110000
          -18 callsubr
        </CharString>
        <CharString name="f_f">
          87 9 16 423 20 -15 16 36 159 -132 159 -2 18 9 18 hstemhm
          72 189 52 19 73 189 52 19 hintmask 1010010111100000
          359 9 rmoveto
          310 16 -75 428 75 16 -49 hlineto
          -84 -80 40 99 hvcurveto
          hintmask 1010011111100000
          66 50 42 51 41 48 -32 -51 vhcurveto
          hintmask 1010100111100000
          -92 callsubr
          hintmask 1100011111100000
          52 -48 51 -60 -65 -41 -29 -123 -51 vhcurveto
          -69 -28 -31 -45 -86 hhcurveto
          -67 -65 29 80 hvcurveto
          hintmask 1010010111100000
          66 50 46 51 41 48 -32 -51 vhcurveto
          hintmask 1011010111100000
          -92 callsubr
          hintmask 1010010111100000
          52 -48 51 -60 -119 -33 -122 -78 vhcurveto
          -38 -62 -16 62 -13 callsubr
          300 16 -49 vlineto
          hintmask 1100010111100000
          423 vlineto
          104 26 76 7 8 hvcurveto
          6 -506 -46 hlineto
          endchar
        </CharString>
        <CharString name="f_h">
          389 66 callgsubr
          -35 16 34 -32 callgsubr
          116 185 hintmask 1011100111100000
          hintmask 1011010111100000
          242 -69 callgsubr
          hintmask 1011100111100000
          -27 callgsubr
          hintmask 1011011011100000
          -71 callgsubr
          hintmask 1011010111100000
          -32 callsubr
          hintmask 1011100111100000
          36 callsubr
          hintmask 1011010111100000
          36 callgsubr
          hintmask 1101100111100000
          78 82 rmoveto
          -89 callsubr
          -85 callgsubr
        </CharString>
        <CharString name="f_k">
          366 1 33 callsubr
          162 16 32 28 -26 -32 callgsubr
          68 38 callgsubr
          -54 18 hintmask 0101101100111001
          hintmask 0101101010111001
          242 -69 callgsubr
          hintmask 0101101100111001
          -27 callgsubr
          hintmask 0101101011011001
          -71 callgsubr
          hintmask 0101101010111001
          -32 callsubr
          hintmask 0101101100111001
          36 callsubr
          hintmask 0101101010111001
          36 callgsubr
          hintmask 0101101100111010
          267 117 -44 callsubr
          -6 callgsubr
          hintmask 0011101100111010
          5 callgsubr
          hintmask 1001101100111010
          -50 callgsubr
          hintmask 0101110100111001
          -22 callgsubr
          hintmask 0101110100111101
          -57 callgsubr
          hintmask 0101110100111001
          -81 callsubr
        </CharString>
        <CharString name="f_l">
          102 9 -19 callgsubr
          34 18 163 16 1 18 hstemhm
          78 189 -84 18 158 18 61 189 hintmask 1111001110000000
          59 callsubr
          247 -69 callgsubr
          hintmask 1111001110000000
          -27 callgsubr
          hintmask 1110110110000000
          -71 callgsubr
          59 callsubr
          -32 callsubr
          hintmask 1111001110000000
          36 callsubr
          59 callsubr
          36 callgsubr
          hintmask 1111001110000000
          79 -577 rmoveto
          -62 -16 315 16 -64 694 hlineto
          -93 callgsubr
          hlineto
          endchar
        </CharString>
        <CharString name="f_t">
          110 -10 57 -38 -19 callgsubr
          35 18 182 16 51 18 hstemhm
          81 189 -90 18 169 18 28 8 callgsubr
          hintmask 0111111010000000
          hintmask 0111111011000000
          385 789 rmoveto
          -70 -62 -27 -46 -37 hvcurveto
          -64 -13 -71 -55 -131 vvcurveto
          -48 -59 callsubr
          -49 vlineto
          -84 -79 26 99 60 35 28 32 12 hvcurveto
          hintmask 0111110110000000
          -13 -23 -7 -28 -30 vvcurveto
          -64 51 -45 59 47 48 37 61 96 -92 22 -44 vhcurveto
          -5 hlineto
          32 34 50 19 58 hhcurveto
          hintmask 1011111011100000
          132 30 -78 -70 -76 -60 -78 -99 hvcurveto
          -28 -16 52 -317 49 callsubr
          66 callsubr
          vhcurveto
          -91 callsubr
          365 93 16 -93 vlineto
          hintmask 0111111011000000
          242 -72 78 -145 vhcurveto
          hintmask 0111110110000000
          -136 -85 rmoveto
          36 82 -19 -83 -51 -38 -29 -39 -46 -46 37 54 34 10 30 19 25 hvcurveto
          1 9 8 1 5 hhcurveto
          endchar
        </CharString>
        <CharString name="fi">
          93 -51 callsubr
          -47 -41 -92 -7 -56 hhcurveto
          60 callgsubr
          218 186 rmoveto
          35 callsubr
          vhcurveto
          -51 callgsubr
          -102 -18 -123 vhcurveto
          -121 37 callsubr
          50 42 51 41 48 -42 callsubr
          -48 51 -60 -119 -33 70 callgsubr
          -54 -65 callgsubr
          426 159 vlineto
          170 61 56 93 hvcurveto
          endchar
        </CharString>
        <CharString name="five">
          -66 -205 33 41 152 69 42 35 47 90 165 hstemhm
          52 18 1 20 202 201 -67 18 hintmask 1000101010000000
          hintmask 1101110100000000
          70 -73 rmoveto
          9 5 2 4 5 3 -3 -5 1 vhcurveto
          -2 2 -8 1 -4 vhcurveto
          -22 5 17 -25 40 hhcurveto
          32 39 26 46 51 -35 29 -45 -63 -29 -45 -47 -62 48 -72 134 160 100 85 142 128 -100 64 -104 hvcurveto
          hintmask 1011101010000000
          -73 -75 -28 -54 -44 hvcurveto
          -7 172 354 212 -18 hlineto
          52 callgsubr
          -302 -379 18 hlineto
          hintmask 1011101100000000
          52 32 40 25 36 hhcurveto
          52 44 -58 -99 -128 -44 -54 -78 hvcurveto
          hintmask 1101110100000000
          -53 -48 41 58 hvcurveto
          endchar
        </CharString>
        <CharString name="florin">
          -66 -224 17 26 147 354 21 180 148 28 21 hstemhm
          -100 26 213 195 -184 191 207 25 40 callgsubr
          465 341 rmoveto
          hintmask 1010111010000000
          -126 hlineto
          -2 55 -3 60 46 vvcurveto
          105 24 90 98 48 44 -33 -28 -6 -5 -2 -5 vhcurveto
          hintmask 1011110110000000
          1 -15 3 40 -52 hhcurveto
          -35 -29 -31 -40 -46 35 -31 46 50 32 42 49 hvcurveto
          40 callgsubr
          62 -58 44 -86 -187 -94 -187 -190 -9 vhcurveto
          -129 -21 hlineto
          hintmask 1010111010000000
          129 -7 hlineto
          40 callgsubr
          -87 11 -100 -87 vvcurveto
          -209 -87 -37 -47 -43 -27 17 26 -15 vhcurveto
          hintmask 1110110110000000
          -3 6 -2 3 4 vvcurveto
          8 4 3 6 vhcurveto
          -1 14 -4 -40 53 hhcurveto
          38 26 31 41 46 -35 29 -45 -52 -31 -42 -49 hvcurveto
          40 callgsubr
          -62 54 -37 69 207 111 256 226 vhcurveto
          19 -1 21 22 vvcurveto
          125 hlineto
          endchar
        </CharString>
        <CharString name="four">
          -18 -33 52 469 -20 hstem
          238 189 vstem
          -17 -33 rmoveto
          255 -161 189 161 148 52 -148 469 hlineto
          -49 -12 -21 -3 -60 -3 rrcurveto
          -34 -265 -280 -221 0 vvcurveto
          71 39 rmoveto
          0 87 78 92 140 vhcurveto
          5 -222 -184 hlineto
          endchar
        </CharString>
        <CharString name="fraction">
          -305 -198 -21 34 -21 hstemhm
          -106 563 hintmask 01100000
          -106 -206 rmoveto
          hintmask 10100000
          18 -13 545 926 -18 12 rlineto
          endchar
        </CharString>
        <CharString name="g">
          -56 -224 18 105 171 26 18 356 18 134 26 hstemhm
          20 72 -48 177 89 18 -1 177 -154 146 -48 78 hintmask 1011001100000000
          44 292 rmoveto
          -77 37 -54 55 -31 vhcurveto
          hintmask 1011010100100000
          -75 -33 -41 -59 -59 vvcurveto
          -63 42 -50 67 -5 vhcurveto
          -64 51 68 -21 57 hhcurveto
          120 101 82 103 hvcurveto
          hintmask 1111010100100000
          65 -48 44 -78 vhcurveto
          -60 -98 -40 -87 hhcurveto
          hintmask 1011010010000000
          -34 -29 3 30 26 36 18 28 12 hvcurveto
          -16 36 40 -7 42 hhcurveto
          119 111 64 132 87 -48 57 -67 29 hvcurveto
          hintmask 1011101100000000
          -38 19 -23 25 40 vvcurveto
          37 21 21 12 9 vhcurveto
          hintmask 1011101101000000
          4 6 4 2 5 hhcurveto
          6 3 -4 -5 -7 -8 -3 -7 -6 hvcurveto
          -7 -6 -13 -17 -23 vvcurveto
          -39 31 -27 40 45 30 35 43 54 -42 31 -48 vhcurveto
          hintmask 1011101100000000
          -56 -40 -45 -54 -27 9 -22 16 -18 hvcurveto
          4 -20 -20 2 -21 hhcurveto
          hintmask 1011001100000000
          -119 -111 -64 -132 hvcurveto
          hintmask 1011001010000000
          230 -178 rmoveto
          -53 0 91 87 87 0 91 53 53 0 -91 -87 -87 0 -91 -53 hvcurveto
          hintmask 1111001100100000
          120 -215 rmoveto
          41 13 -17 -20 -37 -77 -31 -66 -56 -58 23 44 -37 hvcurveto
          4 67 118 34 55 hhcurveto
          endchar
        </CharString>
        <CharString name="germandbls">
          89 -10 19 0 16 15 146 514 19 hstemhm
          67 189 51 68 -67 28 112 160 -67 132 hintmask 1001110010000000
          7 9 rmoveto
          hintmask 0101101100000000
          309 16 -60 501 hlineto
          129 18 45 71 70 33 -40 -76 vhcurveto
          hintmask 1001110100000000
          -136 -141 10 -109 vvcurveto
          hintmask 1001110010000000
          -142 234 11 -119 vvcurveto
          -62 -51 -28 -52 vhcurveto
          hintmask 1011101010000000
          -37 -38 14 28 -21 hvcurveto
          -33 callgsubr
          -63 55 -43 86 96 128 53 133 hvcurveto
          hintmask 1001110010000000
          186 -298 12 48 vvcurveto
          17 42 8 41 11 vhcurveto
          hintmask 0101110100000000
          75 21 75 25 83 vvcurveto
          81 -63 51 -205 -132 -141 -47 -155 vhcurveto
          -492 -60 vlineto
          endchar
        </CharString>
        <CharString name="grave">
          -247 530 99 hstem
          30 303 vstem
          30 611 -83 callsubr
        </CharString>
        <CharString name="greater">
          -89 51 358 hstem
          432 34 vstem
          466 240 rmoveto
          -456 169 -8 -20 430 -159 -430 -159 8 -20 456 169 rlineto
          endchar
        </CharString>
        <CharString name="greaterequal">
          -81 29 21 hstem
          443 42 callgsubr
          1 214 rmoveto
          -472 137 -7 -20 449 -130 -449 -130 7 -20 472 137 rlineto
          endchar
        </CharString>
        <CharString name="guillemotleft">
          -286 71 callgsubr
          5 258 vstem
          5 237 rmoveto
          12 callsubr
          119 159 -17 13 rlineto
          10 -172 -18 callgsubr
        </CharString>
        <CharString name="guillemotright">
          -286 71 callgsubr
          50 258 vstem
          169 237 9 callgsubr
          231 -159 9 callgsubr
          endchar
        </CharString>
        <CharString name="guilsinglleft">
          -398 71 callgsubr
          50 146 vstem
          196 237 rmoveto
          -129 172 -17 -13 119 -159 -119 -159 17 -13 rlineto
          endchar
        </CharString>
        <CharString name="guilsinglright">
          -398 71 callgsubr
          5 146 vstem
          32 237 -18 callgsubr
        </CharString>
        <CharString name="h">
          38 66 callgsubr
          196 16 hstem
          81 52 callsubr
          vstem
          81 684 rmoveto
          -89 callsubr
          -85 callgsubr
        </CharString>
        <CharString name="hbar">
          36 66 callgsubr
          66 19 111 16 hstem
          71 52 callsubr
          vstem
          554 vmoveto
          389 19 -389 hlineto
          71 111 rmoveto
          -89 callsubr
          -85 callgsubr
        </CharString>
        <CharString name="hungarumlaut">
          -164 591 102 hstem
          -8 473 vstem
          459 693 51 callgsubr
          -225 17 51 callgsubr
          endchar
        </CharString>
        <CharString name="hyphen">
          -290 53 callsubr
          52 198 vstem
          52 226 rmoveto
          198 21 -198 hlineto
          endchar
        </CharString>
        <CharString name="i">
          -267 43 callsubr
          62 189 hstemhm
          71 189 hintmask 11001000
          71 453 -61 callsubr
          hintmask 10101000
          60 callsubr
          hintmask 11011000
          -72 callsubr
          71 171 -66 callsubr
          endchar
        </CharString>
        <CharString name="iacute">
          -20 callsubr
          90 453 -74 callgsubr
          316 176 -95 callgsubr
        </CharString>
        <CharString name="icircumflex">
          -20 callsubr
          -19 -64 callsubr
          -76 -181 -74 callgsubr
          endchar
        </CharString>
        <CharString name="idieresis">
          -10 callsubr
          52 62 callgsubr
          29 121 -60 189 -70 121 hintmask 11000100
          -11 callgsubr
          hintmask 10100100
          60 callsubr
          hintmask 11010100
          -72 callsubr
          190 128 rmoveto
          -33 27 -28 34 vhcurveto
          hintmask 11010010
          -74 callsubr
          hvcurveto
          hintmask 11010100
          -34 -16 callgsubr
          hvcurveto
          hintmask 11011000
          62 callsubr
          hintmask 11010100
          -73 callgsubr
          hvcurveto
          hintmask 11011000
          -33 -16 callgsubr
          hvcurveto
          endchar
        </CharString>
        <CharString name="igrave">
          -20 callsubr
          90 453 -74 callgsubr
          12 158 -83 callsubr
        </CharString>
        <CharString name="ij">
          107 14 callsubr
          40 -52 callsubr
          62 189 hstemhm
          85 189 103 63 callgsubr
          hintmask 1011001001000000
          85 453 -61 callsubr
          hintmask 1010101001000000
          60 callsubr
          hintmask 1011011001000000
          -72 callsubr
          71 171 -66 callsubr
          hintmask 1010101001000000
          551 -136 rmoveto
          hintmask 1011001101000000
          -76 callgsubr
          hintmask 1111001101000000
          -91 callgsubr
          hintmask 1011001101000000
          -38 callgsubr
          hintmask 1011011010000000
          -12 callsubr
        </CharString>
        <CharString name="infinity">
          -27 102 18 -17 149 26 149 -17 18 hstemhm
          23 31 462 31 hintmask 10011100
          162 428 rmoveto
          -67 -72 -54 -106 hvcurveto
          hintmask 01011100
          -95 63 -70 91 55 41 24 32 33 vhcurveto
          hintmask 10101100
          -34 25 37 -23 40 hhcurveto
          67 72 54 106 95 -63 70 -91 -56 -40 -24 -33 -33 hvcurveto
          hintmask 10011100
          35 -26 -37 23 -39 hhcurveto
          hintmask 01011100
          60 -107 rmoveto
          -12 -16 rlineto
          -31 -24 -24 -22 -33 hhcurveto
          -47 -28 32 35 45 51 46 60 37 29 -25 -30 19 hvcurveto
          -9 -9 -8 -10 -8 -11 rrcurveto
          hintmask 10101100
          119 -121 rmoveto
          4 5 4 5 4 5 3 5 rlinecurve
          31 24 24 23 34 hhcurveto
          47 28 -32 -35 -45 -51 -46 -60 -37 -29 25 29 -19 hvcurveto
          endchar
        </CharString>
        <CharString name="integral">
          -142 -184 18 21 146 690 146 21 18 hstemhm
          -50 28 167 182 -156 180 162 28 hintmask 10011011
          hintmask 10011101
          145 473 rmoveto
          hintmask 10011011
          -180 26 -93 -146 vvcurveto
          -108 -26 -112 -93 -37 -22 20 12 -9 vhcurveto
          hintmask 11011011
          -33 callgsubr
          hvcurveto
          hintmask 10011011
          -52 43 -43 60 185 113 132 241 vhcurveto
          hintmask 10011101
          62 -24 273 113 vvcurveto
          108 19 113 93 37 22 -20 -12 9 vhcurveto
          hintmask 10111011
          -86 callsubr
          hintmask 10011011
          49 callgsubr
          hintmask 10011101
          -185 -108 -180 -223 hvcurveto
          endchar
        </CharString>
        <CharString name="itilde">
          -299 43 callsubr
          86 24 callsubr
          61 189 hintmask 11001100
          61 453 -61 callsubr
          hintmask 10101100
          60 callsubr
          hintmask 11011100
          -72 callsubr
          225 101 -92 callgsubr
          hintmask 11001100
          -93 callsubr
        </CharString>
        <CharString name="j">
          -253 2 callgsubr
          62 189 hstemhm
          15 63 callgsubr
          hintmask 10100001
          hintmask 10010001
          274 488 rmoveto
          hintmask 10100101
          -76 callgsubr
          hintmask 11100101
          -91 callgsubr
          hintmask 10100101
          -38 callgsubr
          hintmask 10101010
          -12 callsubr
        </CharString>
        <CharString name="jcircumflex">
          -88 callsubr
          -110 619 -94 callgsubr
        </CharString>
        <CharString name="k">
          15 1 33 callsubr
          210 28 155 16 39 callsubr
          hintmask 0101111001000000
          270 719 -44 callsubr
          hintmask 0011111010000000
          -10 callgsubr
          hintmask 1001111010000000
          -50 callgsubr
          hintmask 0101111001000000
          -22 callgsubr
          hintmask 0101111101000000
          -57 callgsubr
          hintmask 0101111001000000
          -81 callsubr
        </CharString>
        <CharString name="kcedilla">
          15 -249 155 22 19 54 33 callsubr
          210 28 155 16 hstemhm
          81 189 25 137 -114 20 0 38 callgsubr
          -109 19 36 18 hintmask 0101011110100110
          368 -53 17 callsubr
          34 79 -20 7 -46 -110 -35 callsubr
          hvcurveto
          hintmask 1101011110100110
          68 callsubr
          vhcurveto
          hintmask 1101011111000110
          -58 callgsubr
          hvcurveto
          hintmask 1101011110100110
          70 callsubr
          hvcurveto
          hintmask 0101011110100110
          67 callsubr
          -98 772 -44 callsubr
          hintmask 0100111110101000
          -10 callgsubr
          hintmask 0110011110101000
          -50 callgsubr
          hintmask 0101011110100110
          -22 callgsubr
          hintmask 0101011110010010
          -57 callgsubr
          hintmask 0101011110100110
          -81 callsubr
        </CharString>
        <CharString name="kgreenlandic">
          15 1 14 -6 16 -15 -21 247 15 202 16 -8 28 39 callsubr
          hintmask 0101101001000000
          hintmask 0101011001000000
          270 488 rmoveto
          hintmask 0101101010000000
          -39 callgsubr
          14 callgsubr
          207 hlineto
          26 2 20 2 0 vvcurveto
          48 -2 -3 -56 -29 vvcurveto
          hintmask 0011101010000000
          -72 11 -88 7 callgsubr
          hintmask 1001101010000000
          -14 callgsubr
          -20 127 126 -119 11 -20 hvcurveto
          -1 4 rlineto
          hintmask 0101011001000000
          -22 callgsubr
          hintmask 0101011101000000
          -57 callgsubr
          hintmask 0101011001000000
          -81 callsubr
        </CharString>
        <CharString name="l">
          -251 -9 callsubr
          hstem
          85 189 vstem
          85 -3 callsubr
          endchar
        </CharString>
        <CharString name="ldot">
          63 9 16 275 195 189 16 hstem
          91 189 58 195 vstem
          91 -3 callsubr
          247 -287 -1 callgsubr
        </CharString>
        <CharString name="less">
          -128 51 358 hstem
          14 34 vstem
          14 220 rmoveto
          456 -169 8 20 -430 159 430 159 -8 20 -456 -169 rlineto
          endchar
        </CharString>
        <CharString name="lessequal">
          -105 29 21 hstem
          -6 42 callgsubr
          -478 188 rmoveto
          472 -137 7 20 -449 130 449 130 -7 20 -472 -137 rlineto
          endchar
        </CharString>
        <CharString name="logicalnot">
          -86 242 21 hstem
          456 22 vstem
          34 242 rmoveto
          422 -146 22 167 -444 hlineto
          endchar
        </CharString>
        <CharString name="lozenge">
          -53 8 659 hstem
          70 376 vstem
          446 337 rmoveto
          -183 330 rlineto
          -11 hlineto
          -182 -330 182 -329 rlineto
          11 hlineto
          -172 329 rmoveto
          167 302 167 -302 -167 -301 rlineto
          endchar
        </CharString>
        <CharString name="lslash">
          -231 -9 callsubr
          hstem
          91 189 vstem
          343 466 rmoveto
          -307 -116 rlineto
          -21 vlineto
          307 117 rlineto
          -252 -421 rmoveto
          -62 -16 315 16 -64 694 hlineto
          -93 callgsubr
          hlineto
          endchar
        </CharString>
        <CharString name="m">
          322 16 callsubr
          hstemhm
          81 26 callgsubr
          164 24 callgsubr
          cntrmask 00011100
          hintmask 10111100
          hintmask 11011100
          554 390 rmoveto
          -1 -1 rlineto
          57 -21 -41 42 -76 hhcurveto
          -70 -44 -33 -65 -26 hvcurveto
          -5 98 hlineto
          hintmask 10111100
          -39 callgsubr
          72 callgsubr
          186 hlineto
          hintmask 11011100
          102 20 137 51 45 4 -77 -117 vhcurveto
          -215 -62 -16 226 186 vlineto
          -85 callsubr
          endchar
        </CharString>
        <CharString name="macron">
          -316 570 19 hstem
          2 279 vstem
          2 570 rmoveto
          279 19 -279 hlineto
          endchar
        </CharString>
        <CharString name="minus">
          36 53 callsubr
          101 474 vstem
          575 247 -30 callsubr
        </CharString>
        <CharString name="mu">
          66 0 14 -14 48 407 14 19 -20 hstemhm
          81 189 -47 22 143 189 hintmask 10101010
          388 455 rmoveto
          -215 vlineto
          hintmask 01011010
          -109 -28 -83 -40 -35 -15 37 89 vhcurveto
          314 vlineto
          hintmask 10101010
          -100 callgsubr
          -14 45 callgsubr
          -100 22 -80 82 -21 vhcurveto
          hintmask 10010110
          21 -5 17 -20 -22 vvcurveto
          -17 -10 -16 -15 -8 vhcurveto
          -23 -12 -15 -25 -28 55 callgsubr
          28 -16 25 -23 12 vhcurveto
          1 hlineto
          -14 8 -11 16 17 vvcurveto
          22 16 20 20 5 vhcurveto
          -1 hlineto
          53 14 34 40 17 41 rrcurveto
          4 -91 257 14 -68 474 hlineto
          hintmask 10101010
          -100 callgsubr
          -14 hlineto
          endchar
        </CharString>
        <CharString name="multiply">
          -143 57 351 hstem
          62 350 vstem
          70 394 rmoveto
          152 -157 -160 -165 15 -15 160 165 160 -165 15 15 -161 165 151 156 -15 15 -151 -156 -150 156 rlineto
          endchar
        </CharString>
        <CharString name="n">
          38 16 callsubr
          hstemhm
          81 185 24 callgsubr
          hintmask 10111000
          81 -65 callsubr
          endchar
        </CharString>
        <CharString name="nacute">
          56 16 callsubr
          hstemhm
          91 185 24 callgsubr
          hintmask 10111000
          91 -65 callsubr
          464 176 -95 callgsubr
        </CharString>
        <CharString name="nbspace">
          -349 endchar
        </CharString>
        <CharString name="nine">
          -8 -203 26 50 153 34 37 373 18 hstemhm
          28 200 -154 18 266 202 hintmask 10110110
          358 180 rmoveto
          -51 -41 -32 -24 vhcurveto
          hintmask 10111010
          -47 -18 44 140 140 18 49 47 47 18 -49 -140 hvcurveto
          hintmask 11110110
          -266 -350 rmoveto
          8 3 4 6 6 2 -4 -6 1 vhcurveto
          -35 3 23 -25 37 hhcurveto
          45 24 34 39 42 -31 38 -51 -51 -35 -42 -50 -69 66 -68 126 206 88 144 206 171 -61 170 -207 hvcurveto
          hintmask 10111010
          -161 -103 -100 -126 -141 104 -61 100 57 36 18 37 30 hvcurveto
          3 -67 hlineto
          -98 1 -127 -129 vhcurveto
          hintmask 11110110
          -96 -42 65 43 hvcurveto
          endchar
        </CharString>
        <CharString name="nonbreakingspace">
          -349 endchar
        </CharString>
        <CharString name="notequal">
          43 0 165 -21 21 144 21 hstemhm
          54 474 hintmask 01110000
          362 474 rmoveto
          hintmask 10110000
          -160 -474 rlineto
          22 hlineto
          160 474 rlineto
          hintmask 01110000
          -330 -330 -1 callsubr
        </CharString>
        <CharString name="ntilde">
          36 16 callsubr
          85 24 callsubr
          71 185 24 callgsubr
          hintmask 10101110
          71 -45 callgsubr
          247 186 vlineto
          hintmask 11001110
          -85 callsubr
          -5 98 hlineto
          hintmask 10111110
          -72 callsubr
          379 101 -92 callgsubr
          hintmask 10101110
          -93 callsubr
        </CharString>
        <CharString name="numbersign">
          130 -10 171 -21 21 155 21 -21 172 hstemhm
          71 578 hintmask 01101000
          71 140 rmoveto
          149 27 callgsubr
          173 27 callgsubr
          148 21 -141 hlineto
          52 155 rlineto
          153 21 -146 27 callsubr
          -173 27 callsubr
          -151 -21 144 hlineto
          -52 -155 rlineto
          -156 hlineto
          230 155 rmoveto
          173 hlineto
          -52 -155 rlineto
          -173 hlineto
          endchar
        </CharString>
        <CharString name="o">
          -11 -8 callgsubr
          hstem
          30 18 callgsubr
          294 -96 callgsubr
          endchar
        </CharString>
        <CharString name="oacute">
          -11 -8 callgsubr
          hstem
          30 18 callgsubr
          294 -96 callgsubr
          104 390 -95 callgsubr
        </CharString>
        <CharString name="ocircumflex">
          -21 -8 callgsubr
          hstem
          25 18 callgsubr
          102 -64 callsubr
          2 -644 -105 callgsubr
          endchar
        </CharString>
        <CharString name="odieresis">
          -21 -8 callgsubr
          32 62 callgsubr
          25 202 -88 19 callgsubr
          -89 202 hintmask 11010010
          289 -96 callgsubr
          hintmask 11101100
          -32 342 -106 callsubr
        </CharString>
        <CharString name="oe">
          278 -10 18 -18 21 188 18 253 18 hstemhm
          30 71 callsubr
          203 121 182 hintmask 10111110
          839 167 rmoveto
          hintmask 01111110
          -23 callgsubr
          -67 -54 -17 -28 -43 hvcurveto
          29 -43 -55 16 -63 hhcurveto
          -157 -107 -100 -149 hvcurveto
          hintmask 10111110
          -149 107 -100 157 63 55 16 29 43 vhcurveto
          -30 47 62 -15 78 hhcurveto
          121 74 70 104 20 hvcurveto
          -563 -156 rmoveto
          -61 callgsubr
          46 15 -57 -165 1 hvcurveto
          -11 vlineto
          -171 -15 -58 -47 vhcurveto
          265 329 21 callgsubr
          endchar
        </CharString>
        <CharString name="ogonek">
          -278 -256 18 44 -21 hstemhm
          58 18 161 33 hintmask 01100000
          hintmask 11110000
          239 -229 rmoveto
          19 17 10 22 2 23 4 55 -38 39 -42 3 rrcurveto
          hintmask 01110000
          -55 4 -29 -42 -3 -33 -3 -41 30 -30 35 -3 16 -1 17 7 15 11 rrcurveto
          hintmask 11110000
          3 5 2 2 5 hhcurveto
          6 3 -5 -4 -1 hvcurveto
          -6 -3 -2 -7 -6 vhcurveto
          -18 -19 -26 -4 -15 hhcurveto
          -43 -48 25 72 47 42 70 91 34 hvcurveto
          -1 16 rlineto
          -77 -26 -73 -67 -76 vvcurveto
          -75 51 -38 58 13 36 6 21 23 vhcurveto
          endchar
        </CharString>
        <CharString name="ograve">
          -21 -8 callgsubr
          hstem
          25 18 callgsubr
          289 -96 callgsubr
          -200 372 -83 callsubr
        </CharString>
        <CharString name="one">
          -178 9 16 463 -20 hstem
          133 189 vstem
          133 25 rmoveto
          -86 -16 361 16 -86 463 hlineto
          0 -70 -17 -54 -2 vhcurveto
          -6 -33 -21 -99 -140 -43 5 -17 rcurveline
          0 49 12 48 33 vhcurveto
          endchar
        </CharString>
        <CharString name="onehalf">
          258 65 107 87 115 -84 20 94 24 122 95 hstemhm
          117 125 257 18 159 130 -2 12 hintmask 1011011010000000
          hintmask 1011011100000000
          488 65 rmoveto
          hintmask 1011011010000000
          -25 callgsubr
          hintmask 1011011100000000
          21 callsubr
          hintmask 1101011010000000
          -19 callsubr
          hintmask 1011011100000000
          22 callgsubr
          -281 -55 11 callsubr
          hintmask 1011111010000000
          -450 -106 rmoveto
          -240 -57 -20 239 20 -57 346 vlineto
          -9 -29 -39 -40 callgsubr
          endchar
        </CharString>
        <CharString name="onequarter">
          230 133 31 126 20 240 95 hstem
          116 126 310 126 vstem
          116 -38 callsubr
          96 -540 11 callsubr
          28 callgsubr
          -2 callgsubr
          16 callgsubr
        </CharString>
        <CharString name="onesuperior">
          -240 61 callgsubr
          42 20 240 95 hstem
          136 126 vstem
          136 -38 callsubr
          -47 -323 -5 callsubr
          endchar
        </CharString>
        <CharString name="ordfeminine">
          -215 61 callgsubr
          60 37 106 18 2 90 24 20 hstemhm
          24 112 -96 20 147 112 40 18 59 callsubr
          207 425 rmoveto
          -40 -21 -40 -21 vhcurveto
          hintmask 1110110110000000
          -15 -14 17 37 51 40 1 31 hvcurveto
          13 -73 rmoveto
          -35 3 22 -35 42 hhcurveto
          55 28 38 53 7 hvcurveto
          -18 2 rlineto
          -35 -6 -13 -19 -10 hhcurveto
          -8 -3 6 13 hvcurveto
          102 vlineto
          93 -29 44 -129 vhcurveto
          59 callsubr
          -79 -42 -33 -44 hvcurveto
          hintmask 1101101110000000
          -26 18 -31 37 31 25 19 27 21 -13 23 -27 -24 -8 -23 0 vhcurveto
          -3 -1 -1 -7 -9 64 callsubr
          1 3 hvcurveto
          59 callsubr
          21 8 33 18 39 hhcurveto
          64 1 -51 -44 hvcurveto
          -21 vlineto
          hintmask 1110110110000000
          -55 -128 1 -83 -60 51 -19 49 51 33 42 28 8 hvcurveto
          -142 -151 -5 callsubr
          endchar
        </CharString>
        <CharString name="ordmasculine">
          -234 61 callgsubr
          60 18 261 18 hstem
          25 121 73 121 vstem
          63 227 -5 callsubr
          118 60 rmoveto
          94 65 59 89 90 -65 59 -94 -93 -63 -59 -90 -89 63 -59 93 hvcurveto
          38 148 rmoveto
          -101 -9 -29 -29 -26 -9 29 101 102 9 29 26 29 9 -29 -102 vhcurveto
          endchar
        </CharString>
        <CharString name="oslash">
          -31 -8 callgsubr
          hstem
          20 18 callgsubr
          151 -107 rmoveto
          21 -7 249 703 -22 7 rlineto
          -115 -606 -105 callgsubr
          endchar
        </CharString>
        <CharString name="otilde">
          -21 -8 callgsubr
          66 24 callsubr
          25 -4 callsubr
          hintmask 11011100
          289 -96 callgsubr
          hintmask 11111100
          12 315 -92 callgsubr
          hintmask 11011100
          -93 callsubr
        </CharString>
        <CharString name="p">
          33 58 callsubr
          -35 16 hstemhm
          77 38 callsubr
          hintmask 11011100
          271 62 -57 callsubr
          hvcurveto
          hintmask 11101100
          -6 callsubr
          vhcurveto
          -5 88 hlineto
          hintmask 11011100
          -93 callgsubr
          -642 -62 72 callsubr
          -75 251 hlineto
          53 callgsubr
          hintmask 11101100
          -43 callsubr
          endchar
        </CharString>
        <CharString name="paragraph">
          -102 -224 18 20 158 47 -21 686 16 hstemhm
          146 89 -9 105 66 18 hintmask 10110110
          216 54 callgsubr
          -133 -84 -92 -111 -110 80 -86 115 10 11 0 2 11 hvcurveto
          -324 vlineto
          44 2 38 -13 23 -30 rrcurveto
          732 vlineto
          29 -3 37 -2 0 vvcurveto
          -724 vlineto
          -100 -54 -66 -81 vhcurveto
          hintmask 10111010
          -10 -17 1 11 15 callgsubr
          6 hvcurveto
          hintmask 11111010
          5 6 -1 6 hhcurveto
          36 34 31 43 55 -47 29 -43 -48 -48 -34 -63 hvcurveto
          hintmask 10111010
          -57 48 -42 63 87 71 60 129 vhcurveto
          719 71 16 vlineto
          hintmask 10110110
          -169 -33 19 -68 hhcurveto
          endchar
        </CharString>
        <CharString name="parenleft">
          59 callgsubr
          70 154 vstem
          224 247 rmoveto
          242 51 195 168 vhcurveto
          16 vlineto
          -239 -134 -219 -234 -233 134 -219 239 hvcurveto
          16 vlineto
          -168 -51 195 241 hvcurveto
          endchar
        </CharString>
        <CharString name="parenright">
          59 callgsubr
          219 154 vstem
          219 247 rmoveto
          -241 -51 -195 -168 vhcurveto
          -16 vlineto
          239 134 219 233 234 -134 219 -239 hvcurveto
          -16 vlineto
          168 51 -195 -242 hvcurveto
          endchar
        </CharString>
        <CharString name="partialdiff">
          75 -10 23 384 49 115 146 36 21 hstemhm
          25 177 -82 28 291 183 hintmask 11011010
          262 743 rmoveto
          105 72 -61 -166 -41 -4 -52 -8 -55 hvcurveto
          53 -33 -62 25 -64 hhcurveto
          -112 -131 -74 -160 -108 86 -114 171 222 118 212 184 199 -110 179 -230 hvcurveto
          hintmask 11110110
          -108 -54 -59 -54 58 callgsubr
          -27 31 -39 -23 -15 -12 -8 -6 hvcurveto
          -7 -6 -3 -8 -7 hhcurveto
          -5 -4 3 6 5 2 4 4 6 hvcurveto
          hintmask 11011010
          12 9 30 35 69 hhcurveto
          -6 -730 rmoveto
          -29 -25 17 99 136 61 132 79 39 28 -37 -32 11 hvcurveto
          -154 -26 -56 -161 -82 hhcurveto
          endchar
        </CharString>
        <CharString name="percent">
          383 30 callgsubr
          30 13 callsubr
          86 13 callsubr
          vstem
          685 222 rmoveto
          -95 callsubr
        </CharString>
        <CharString name="period">
          -304 -10 189 -168 -21 hstemhm
          53 189 hintmask 01100000
          53 84 -36 callgsubr
          vhcurveto
          hintmask 10100000
          54 -41 41 -54 vhcurveto
          hintmask 01100000
          -52 -42 -41 -54 hvcurveto
          endchar
        </CharString>
        <CharString name="periodcentered">
          -305 143 195 hstem
          50 195 vstem
          50 240 -1 callgsubr
        </CharString>
        <CharString name="perthousand">
          814 30 callgsubr
          20 13 callsubr
          86 13 callsubr
          33 13 callsubr
          vstem
          1126 222 rmoveto
          -83 callgsubr
          -300 hmoveto
          -95 callsubr
        </CharString>
        <CharString name="pi">
          -4 -10 57 -56 27 360 97 hstemhm
          22 148 -102 22 113 18 96 185 67 22 hintmask 01101111
          hintmask 10101111
          440 -8 callsubr
          284 vlineto
          59 7 30 37 66 vvcurveto
          18 -2 25 -7 25 vhcurveto
          -16 -4 rlineto
          2 -11 1 -10 -9 vvcurveto
          -37 -21 -14 -76 4 vhcurveto
          -258 13 rlineto
          -81 4 -65 -37 -79 vvcurveto
          -25 4 -24 5 -19 vhcurveto
          16 3 rlineto
          -2 11 -1 11 9 vvcurveto
          37 22 14 76 -4 vhcurveto
          15 -1 rlineto
          -243 vlineto
          hintmask 01110111
          -73 -25 -29 -29 -16 vhcurveto
          -2 -3 -5 -1 -3 hhcurveto
          -6 -3 5 4 5 3 2 5 3 hvcurveto
          12 8 21 9 36 vvcurveto
          44 -34 22 -36 -47 -31 -36 -40 -55 39 -34 45 69 46 57 91 vhcurveto
          -1 242 97 -5 rlineto
          -240 vlineto
          hintmask 10101111
          -103 50 -43 73 vhcurveto
          endchar
        </CharString>
        <CharString name="plus">
          -6 21 -21 53 callsubr
          310 20 vstem
          83 226 rmoveto
          227 -226 20 226 61 callgsubr
          -227 227 -20 -227 -227 hlineto
          endchar
        </CharString>
        <CharString name="plusminus">
          16 30 21 225 21 hstem
          310 20 vstem
          83 276 rmoveto
          227 -176 20 176 61 callgsubr
          -227 177 -20 -177 -227 hlineto
          474 -246 -30 callsubr
        </CharString>
        <CharString name="product">
          204 -95 14 767 14 hstem
          114 198 179 198 vstem
          312 686 rmoveto
          179 63 callsubr
          767 64 14 -703 -14 64 63 callsubr
          hlineto
          endchar
        </CharString>
        <CharString name="q">
          31 74 callgsubr
          180 45 415 37 -35 56 callsubr
          hintmask 11010100
          hintmask 11101100
          366 417 rmoveto
          32 callgsubr
          -134 57 -114 124 70 44 23 65 26 hvcurveto
          5 -268 -75 72 callsubr
          -62 hlineto
          hintmask 11010100
          642 71 16 -60 vlineto
          -69 -64 5 14 -67 hvcurveto
          hintmask 11101100
          4 -249 rmoveto
          -91 -24 -112 -52 -45 -7 90 29 callgsubr
        </CharString>
        <CharString name="question">
          -95 -10 157 34 18 274 162 48 37 hstemhm
          2 18 19 145 -26 22 -10 157 -76 203 hintmask 1111101000000000
          hintmask 1111100100000000
          170 68 rmoveto
          -43 35 -35 43 44 35 35 43 44 -35 35 -44 -43 -35 -35 -44 vhcurveto
          hintmask 1111101010000000
          -12 201 rmoveto
          -60 49 -28 45 43 37 24 33 25 vhcurveto
          -13 12 rlineto
          -24 -19 -31 -27 -43 hhcurveto
          -35 -36 21 44 hvcurveto
          107 274 -11 189 vvcurveto
          88 -63 83 -176 -123 -90 -63 -87 -56 39 -41 57 vhcurveto
          hintmask 1111110000000000
          49 37 37 46 45 -34 34 -42 -38 -31 -26 -37 -8 3 -14 4 -7 hvcurveto
          3 -5 2 -2 -4 vvcurveto
          -5 -4 -4 -5 vhcurveto
          hintmask 1111101010000000
          -4 -4 3 7 -4 hvcurveto
          -6 9 -4 16 13 vvcurveto
          62 62 50 64 81 24 -65 -84 vhcurveto
          -170 -93 6 -101 vvcurveto
          endchar
        </CharString>
        <CharString name="questiondown">
          -77 -242 37 48 162 274 18 34 157 hstemhm
          56 203 -76 157 -14 145 -141 22 138 18 hintmask 1111000110000000
          hintmask 1111010010000000
          340 410 rmoveto
          43 -35 35 -43 -44 -35 -35 -43 -44 35 -35 44 43 35 35 44 vhcurveto
          hintmask 1111100110000000
          12 -201 rmoveto
          60 -49 28 -45 -43 -37 -24 -33 -25 vhcurveto
          13 -12 rlineto
          24 19 31 27 43 hhcurveto
          35 36 -21 -44 hvcurveto
          -107 -274 11 -189 vvcurveto
          -88 63 -83 176 123 90 63 87 56 -39 41 -57 vhcurveto
          hintmask 1111001010000000
          -49 -37 -37 -46 -45 34 -34 42 38 31 26 37 8 -3 14 -4 7 hvcurveto
          -3 5 -2 2 4 -9 callgsubr
          vhcurveto
          hintmask 1111100110000000
          4 4 -3 -7 4 hvcurveto
          6 -9 4 -16 -13 vvcurveto
          -62 -62 -50 -64 -81 -24 65 84 vhcurveto
          170 93 -6 101 vvcurveto
          endchar
        </CharString>
        <CharString name="quotedbl">
          -401 488 212 hstem
          40 19 74 19 vstem
          40 57 callgsubr
          74 hmoveto
          -212 19 212 vlineto
          endchar
        </CharString>
        <CharString name="quotedblbase">
          -27 -10 193 -30 30 hstemhm
          31 177 30 18 47 177 30 18 hintmask 10010100
          15 callsubr
          hintmask 10110100
          -7 callsubr
          hvcurveto
          hintmask 01110100
          -41 callgsubr
          276 -19 23 callgsubr
          hintmask 10010100
          81 -66 41 -56 vhcurveto
          hintmask 10011100
          -7 callsubr
          hvcurveto
          hintmask 01011100
          -41 callgsubr
          endchar
        </CharString>
        <CharString name="quotedblleft">
          -39 376 22 hstemhm
          35 18 33 179 30 18 33 179 hintmask 11010000
          222 54 callgsubr
          1 callgsubr
          vhcurveto
          hintmask 11110000
          -29 callsubr
          hvcurveto
          -70 callgsubr
          258 17 rmoveto
          hintmask 11011000
          -68 callsubr
        </CharString>
        <CharString name="quotedblright">
          -39 697 22 hstemhm
          35 179 33 18 30 179 33 18 hintmask 10101000
          338 376 rmoveto
          5 callsubr
          vhcurveto
          hintmask 10111000
          -28 callgsubr
          hvcurveto
          -70 callsubr
          -258 -17 rmoveto
          hintmask 11101000
          -67 callgsubr
        </CharString>
        <CharString name="quoteleft">
          -313 376 22 hstem
          27 18 33 179 vstem
          214 54 callgsubr
          -68 callsubr
        </CharString>
        <CharString name="quoteright">
          -305 697 22 hstem
          28 179 33 18 vstem
          71 376 rmoveto
          -67 callgsubr
        </CharString>
        <CharString name="quotesinglbase">
          -310 11 -21 163 30 hstemhm
          31 177 30 18 hintmask 11010000
          15 callsubr
          hintmask 11110000
          -7 callsubr
          25 -13 19 -18 12 hvcurveto
          6 callgsubr
          hintmask 11010000
          -40 callsubr
          endchar
        </CharString>
        <CharString name="quotesingle">
          -177 488 212 hstem
          177 19 vstem
          177 57 callgsubr
          endchar
        </CharString>
        <CharString name="r">
          -122 -88 callgsubr
          endchar
        </CharString>
        <CharString name="radical">
          -45 9 831 -398 60 hstemhm
          -55 628 hintmask 10100000
          573 836 rmoveto
          -19 4 -164 -692 -108 249 rlineto
          hintmask 01100000
          80 -34 -47 25 -62 hhcurveto
          -78 -82 -49 -13 -34 hvcurveto
          8 -17 rlineto
          19 44 13 0 7 hhcurveto
          38 17 -49 0 hvcurveto
          175 -384 rlineto
          129 hlineto
          endchar
        </CharString>
        <CharString name="rcaron">
          -84 -88 callgsubr
          109 196 -80 callgsubr
        </CharString>
        <CharString name="rcommaaccent">
          -122 -248 18 28 156 55 -11 callsubr
          -177 138 19 18 199 28 hintmask 1010010010000000
          154 57 callsubr
          hintmask 1110010010000000
          50 -39 43 -53 vhcurveto
          hintmask 1110010110000000
          -42 -41 -36 -45 -41 36 -34 39 48 15 37 24 hvcurveto
          9 -4 7 4 vvcurveto
          6 5 3 5 vhcurveto
          hintmask 1110010010000000
          10 3 -19 -11 hvcurveto
          hintmask 1010010010000000
          -35 -37 -53 -56 vhcurveto
          -3 hlineto
          hintmask 1010011000000000
          120 637 rmoveto
          81 vlineto
          hintmask 1010101000000000
          -39 callgsubr
          -62 69 callsubr
          -75 199 hlineto
          hintmask 1010011001000000
          4 callgsubr
          hintmask 1011010011000000
          -86 callsubr
          hintmask 1010010011000000
          49 callgsubr
          hintmask 1010011000000000
          -54 -39 -35 -46 -20 hvcurveto
          endchar
        </CharString>
        <CharString name="registered">
          235 -124 27 100 60 -54 17 192 19 215 17 114 27 hstemhm
          50 28 176 143 91 15 -14 150 117 28 hintmask 1011111110100000
          756 253 rmoveto
          hintmask 1101111110100000
          -125 -47 -65 -38 -13 -9 11 28 vhcurveto
          9 vlineto
          103 -46 25 -100 -8 vhcurveto
          9 vlineto
          hintmask 1011111101100000
          95 10 41 37 68 vvcurveto
          90 -78 24 -115 vhcurveto
          -235 -17 43 -426 -43 -17 228 17 -42 192 hlineto
          hintmask 1101111110100000
          32 hlineto
          59 0 -29 -62 -32 4 -36 23 -25 hvcurveto
          -19 17 29 -12 38 hhcurveto
          113 72 99 151 -25 callsubr
          -15 22 rlineto
          -25 -47 -56 -14 -31 callgsubr
          hvcurveto
          hintmask 1011111110100000
          187 152 -133 -197 hvcurveto
          -359 199 rmoveto
          hintmask 1011111101100000
          21 hlineto
          51 20 -18 -95 -57 -11 -45 -50 hvcurveto
          -31 hlineto
          endchar
        </CharString>
        <CharString name="ring">
          -430 520 18 85 18 hstem
          25 18 83 18 vstem
          43 581 -75 callsubr
        </CharString>
        <CharString name="s">
          -79 -96 callsubr
          endchar
        </CharString>
        <CharString name="s_p">
          541 74 callgsubr
          179 19 -18 37 18 144 98 145 10 45 -35 16 -2 20 302 17 hstemhm
          38 31 -24 164 86 18 15 162 -50 30 115 38 callsubr
          hintmask 1100000111010111
          hintmask 1010010011010111
          779 62 -55 callsubr
          114 -134 -70 -44 -23 -65 -26 hvcurveto
          -5 87 hlineto
          238 -102 81 -152 -142 -83 -97 -95 -52 29 -60 51 -28 vhcurveto
          -1 -3 68 -29 rlineto
          -52 41 -77 41 90 vvcurveto
          76 65 99 143 147 54 -93 -73 vhcurveto
          hintmask 1100001011010111
          -74 -59 -80 -95 vhcurveto
          -54 -16 71 -642 -62 72 callsubr
          -75 hlineto
          hintmask 1010010011010111
          251 vlineto
          53 callgsubr
          -43 callsubr
          hintmask 1100100110110111
          -455 254 -101 callgsubr
          hintmask 1100000110111011
          -58 callsubr
          hintmask 1101000111011011
          -101 callsubr
          hintmask 1100000110111011
          -17 callgsubr
          hintmask 1100100110110111
          19 callsubr
          endchar
        </CharString>
        <CharString name="s_t">
          282 -13 callgsubr
          22 14 -2 20 290 19 hstemhm
          38 31 -24 164 86 21 12 162 -50 30 115 8 callgsubr
          hintmask 1000111010111000
          442 442 rmoveto
          -49 48 -77 34 90 vvcurveto
          76 60 87 143 147 54 -81 -73 vhcurveto
          hintmask 1001011010111000
          -76 -60 -44 callgsubr
          -99 75 -156 -142 -82 -87 -95 -52 30 -51 50 -37 vhcurveto
          -1 -3 rlineto
          hintmask 1010110110111000
          -59 -4 -101 callgsubr
          hintmask 1000110111011000
          -58 callsubr
          hintmask 1100111011011000
          -101 callsubr
          hintmask 1000110111011000
          -17 callgsubr
          hintmask 1010110110111000
          19 callsubr
          endchar
        </CharString>
        <CharString name="sacute">
          -68 -96 callsubr
          107 162 -95 callgsubr
        </CharString>
        <CharString name="scaron">
          -80 -23 callsubr
          43 -28 callsubr
          hintmask 10110101
          320 467 -106 callgsubr
          139 136 -80 callgsubr
        </CharString>
        <CharString name="scircumflex">
          -68 -53 callgsubr
          80 -64 callsubr
          hintmask 10110101
          50 -167 -106 callgsubr
          endchar
        </CharString>
        <CharString name="section">
          32 -224 18 53 154 493 154 52 19 hstemhm
          47 88 -65 18 11 127 -120 136 128 136 -99 127 -36 88 -61 18 hintmask 1001010000010000
          348 54 callgsubr
          hintmask 1001011000010000
          -178 -71 -76 -102 -59 24 -36 31 -29 hvcurveto
          hintmask 1001100001000000
          -71 -38 -36 -64 -65 -183 360 -35 -141 vvcurveto
          -66 -75 -31 -66 vhcurveto
          hintmask 1001010000010000
          -163 -15 99 14 8 4 3 5 5 3 -3 -5 1 hvcurveto
          1 -9 rlineto
          hintmask 1101010100010000
          -22 2 18 -32 44 hhcurveto
          42 30 33 43 42 -33 36 -52 hvcurveto
          hintmask 1101010001000000
          -54 -34 -45 -48 -64 62 -68 139 186 77 72 106 48 -22 40 -34 34 hvcurveto
          hintmask 1001011000100000
          72 38 36 66 65 183 -360 35 141 vvcurveto
          70 69 26 66 vhcurveto
          hintmask 1001010000010000
          149 15 -99 -13 -8 -4 -3 -5 -5 -3 3 5 -1 hvcurveto
          -1 9 rlineto
          hintmask 1011010010010000
          22 -2 -18 32 -44 hhcurveto
          -42 -30 -33 -43 -42 33 -36 52 hvcurveto
          hintmask 1011010000010000
          54 34 40 48 hvcurveto
          hintmask 1001010000010000
          61 -50 76 -145 vhcurveto
          hintmask 1001100000100000
          -213 -374 rmoveto
          27 13 19 20 14 vhcurveto
          11 -9 rlineto
          118 -99 201 -59 -88 vvcurveto
          -28 -14 -19 -20 -14 vhcurveto
          -115 104 -214 57 95 vvcurveto
          endchar
        </CharString>
        <CharString name="semicolon">
          -269 11 -21 167 23 118 68 callgsubr
          50 177 -175 190 17 18 hintmask 11011010
          143 -145 rmoveto
          40 19 94 55 118 vvcurveto
          96 -67 37 -58 -60 -42 -43 -59 -29 callgsubr
          24 -32 -52 vvcurveto
          -107 -87 -52 -37 -17 vhcurveto
          hintmask 11100110
          -83 522 rmoveto
          -48 callsubr
          26 callsubr
          vhcurveto
          hintmask 11010110
          29 callsubr
        </CharString>
        <CharString name="seven">
          -120 305 164 hstemhm
          50 17 22 189 151 18 hintmask 11010000
          50 469 rmoveto
          -211 17 vlineto
          33 2 14 14 38 hhcurveto
          169 hlineto
          102 33 47 0 hvcurveto
          -17 -115 -66 -49 -64 -43 rrcurveto
          hintmask 11110000
          -92 -62 -97 -45 -130 vvcurveto
          -64 37 -46 59 71 22 53 57 vhcurveto
          292 169 -48 267 vvcurveto
          97 -18 vlineto
          52 callgsubr
          endchar
        </CharString>
        <CharString name="six">
          -8 -10 18 373 37 34 153 50 26 hstemhm
          31 202 130 200 -64 18 hintmask 11011010
          233 298 rmoveto
          51 41 32 24 vhcurveto
          hintmask 11011100
          47 18 -44 -140 -140 -18 -49 -47 -47 -18 49 140 hvcurveto
          hintmask 11111010
          266 350 rmoveto
          -8 -3 -4 -6 -6 -2 4 6 -1 vhcurveto
          35 -3 -23 25 -37 hhcurveto
          -45 -24 -34 -39 -42 31 -38 51 51 35 42 50 69 -66 68 -126 -206 -88 -144 -206 -171 61 -170 207 hvcurveto
          hintmask 11011100
          161 103 100 126 141 -104 61 -100 -57 -36 -18 -37 -30 hvcurveto
          -3 67 hlineto
          98 -1 127 129 vhcurveto
          hintmask 11111010
          96 42 -65 -43 hvcurveto
          endchar
        </CharString>
        <CharString name="slash">
          -251 -121 821 hstem
          33 305 vstem
          33 -114 rmoveto
          20 -7 285 815 -19 6 rlineto
          endchar
        </CharString>
        <CharString name="space">
          -349 endchar
        </CharString>
        <CharString name="sterling">
          -90 -10 112 -101 18 94 51 68 21 50 148 30 27 hstemhm
          20 26 14 195 197 22 -14 18 hintmask 0111011010000000
          397 253 rmoveto
          hintmask 0111011110000000
          -111 hlineto
          -14 42 -17 41 50 vvcurveto
          60 28 35 55 48 49 -18 -44 15 vhcurveto
          -46 callgsubr
          vhcurveto
          hintmask 0111111010000000
          -7 -2 6 7 -2 hvcurveto
          -78 callgsubr
          hvcurveto
          hintmask 0111011110000000
          61 -53 54 -123 -127 -111 -47 -105 -40 24 -32 30 -31 vhcurveto
          -72 -21 92 hlineto
          25 -26 26 -25 17 -30 rrcurveto
          8 -24 -23 5 -21 hhcurveto
          hintmask 0111011010000000
          -66 -48 -36 -49 -50 62 -28 43 51 40 16 25 29 hvcurveto
          hintmask 1011011001000000
          -27 36 38 -25 53 hhcurveto
          90 20 103 69 -4 hvcurveto
          -18 hlineto
          -53 -5 -36 -7 -47 hhcurveto
          -24 -26 7 9 -27 hvcurveto
          4 15 3 16 16 vvcurveto
          24 -4 22 -6 21 vhcurveto
          105 hlineto
          hintmask 0111011010000000
          -273 -213 rmoveto
          -44 -34 26 25 22 18 21 40 44 34 -23 -26 33 hvcurveto
          -24 -8 -25 -21 -58 hhcurveto
          endchar
        </CharString>
        <CharString name="summation">
          86 -95 178 603 14 hstem
          572 16 vstem
          645 168 rmoveto
          -15 hlineto
          -85 -30 -55 0 -44 hhcurveto
          -314 hlineto
          215 329 -140 274 rlineto
          139 hlineto
          125 21 -84 -79 25 hvcurveto
          16 hlineto
          -4 68 -7 90 -1 19 rrcurveto
          -536 -14 hlineto
          225 -443 -221 -324 rlineto
          -14 516 vlineto
          endchar
        </CharString>
        <CharString name="t">
          -231 -10 57 406 16 hstem
          72 8 callgsubr
          vstem
          199 -8 callsubr
          365 93 16 -93 172 -13 vlineto
          -132 -30 -141 -40 -50 hhcurveto
          -7 -16 52 -317 49 callsubr
          vhcurveto
          endchar
        </CharString>
        <CharString name="thorn">
          62 58 callsubr
          196 16 hstem
          110 38 callsubr
          vstem
          304 62 -55 callsubr
          114 -43 callgsubr
          -873 14 callgsubr
          251 hlineto
          53 callgsubr
          -43 callsubr
          endchar
        </CharString>
        <CharString name="three">
          -88 -202 37 48 155 109 32 75 158 42 34 hstemhm
          24 18 6 18 -4 134 -113 142 57 199 -194 157 hintmask 1110110000000000
          42 -64 rmoveto
          14 6 3 5 5 3 -4 -6 vhcurveto
          hintmask 1110110100000000
          -5 0 -3 1 -4 vhcurveto
          -34 6 30 -14 28 hhcurveto
          37 33 32 42 41 -27 40 -54 hvcurveto
          hintmask 1110110001000000
          -57 -34 -43 -58 -78 79 -61 114 189 75 102 115 112 -113 76 -128 -30 hvcurveto
          -3 9 rlineto
          hintmask 1111101000100000
          135 19 72 56 77 vvcurveto
          107 -103 47 -102 -88 -60 -35 -49 -28 vhcurveto
          -10 -18 -5 -19 -18 vvcurveto
          -53 40 -42 57 vhcurveto
          hintmask 1111110010000000
          46 34 33 50 40 -30 35 -46 -38 -28 -28 -31 -7 1 -11 4 -7 hvcurveto
          hintmask 1111101000100000
          1 -3 5 -6 -5 vvcurveto
          -5 -4 -3 -5 -10 -9 20 24 54 47 50 62 64 48 -59 -66 -112 -138 -59 -36 -16 vhcurveto
          8 -17 rlineto
          hintmask 1110110001000000
          9 20 23 13 21 hhcurveto
          84 13 -96 -60 -77 -37 -79 -101 hvcurveto
          hintmask 1110110000000000
          -42 -60 39 62 hvcurveto
          endchar
        </CharString>
        <CharString name="threequarters">
          220 133 31 119 41 callgsubr
          2 46 callsubr
          266 126 hintmask 1100010100100000
          133 42 callsubr
          -8 -12 -1 0 hvcurveto
          -4 9 rlineto
          31 callgsubr
          -21 callsubr
          64 callgsubr
          hvcurveto
          hintmask 1101011010100000
          55 callsubr
          30 callsubr
          hvcurveto
          hintmask 1101010101100000
          22 callsubr
          vhcurveto
          hintmask 1100110100100000
          3 3 -3 -2 1 hvcurveto
          9 callsubr
          -52 44 -34 87 hvcurveto
          hintmask 1101010101100000
          74 -273 11 callsubr
          hintmask 1101011010100000
          28 callgsubr
          hlineto
          hintmask 1110011000100000
          -2 callgsubr
          hintmask 1101011010100000
          16 callgsubr
        </CharString>
        <CharString name="threesuperior">
          -187 61 callgsubr
          35 41 callgsubr
          50 46 callsubr
          hintmask 1100010100000000
          hintmask 1101011010000000
          181 42 callsubr
          -7 -6 0 -1 -7 hvcurveto
          -4 9 rlineto
          hintmask 1101010101000000
          31 callgsubr
          vhcurveto
          hintmask 1100110100000000
          -21 callsubr
          hvcurveto
          hintmask 1101010101000000
          64 callgsubr
          55 callsubr
          hintmask 1101011010000000
          30 callsubr
          22 callsubr
          3 3 -3 -2 1 vhcurveto
          hintmask 1110011000000000
          9 callsubr
          hvcurveto
          hintmask 1101011010000000
          -52 44 -34 87 vhcurveto
          hintmask 1100010100000000
          -83 -56 -5 callsubr
          endchar
        </CharString>
        <CharString name="tilde">
          -130 554 24 callsubr
          62 346 hintmask 01100000
          hintmask 11100000
          309 554 -92 callgsubr
          hintmask 01100000
          -93 callsubr
        </CharString>
        <CharString name="trademark">
          562 0 19 666 19 hstem
          -276 10 callsubr
          560 377 rmoveto
          -4 11 -2 10 8 vvcurveto
          30 23 9 0 vhcurveto
          115 -300 -20 -58 rlineto
          -395 -79 rmoveto
          237 18 -41 356 4 hlineto
          144 -374 rlineto
          46 hlineto
          120 374 rlineto
          7 -356 -42 -18 211 18 -41 416 41 18 -171 hlineto
          -91 -288 -110 288 rlineto
          -398 -202 19 hlineto
          34 8 150 105 vhcurveto
          -416 -48 vlineto
          628 hmoveto
          -40 357 hlineto
          56 40 1 0 vhcurveto
          -450 -48 rmoveto
          -366 -39 415 vlineto
          26 -4 13 -14 -31 vvcurveto
          126 -506 rmoveto
          384 140 98 261 261 -140 98 -384 -383 -140 -98 -261 -261 140 -98 383 hvcurveto
          26 vmoveto
          -366 -129 89 244 244 129 89 366 367 129 -89 -244 -244 -129 -89 -367 hvcurveto
          endchar
        </CharString>
        <CharString name="two">
          -51 9 155 92 153 49 30 hstemhm
          47 18 226 195 13 15 hintmask 10110100
          266 216 rmoveto
          hintmask 11111100
          102 10 118 13 122 vvcurveto
          82 -98 45 -135 -106 -100 -45 -95 -50 35 -42 51 51 32 36 42 39 -25 36 -45 -37 -23 -25 -35 -3 vhcurveto
          -6 -1 -2 -4 -6 hhcurveto
          -6 -3 4 8 55 59 52 71 63 33 -47 -58 -98 -54 3 -100 -52 hvcurveto
          -59 -31 -52 -61 -105 vvcurveto
          hintmask 10110100
          488 202 -15 hlineto
          52 callgsubr
          -211 hlineto
          -94 -34 -22 -21 -25 hvcurveto
          -6 5 9 17 23 25 31 18 rlinecurve
          31 18 54 8 43 4 rrcurveto
          endchar
        </CharString>
        <CharString name="twosuperior">
          -171 61 callgsubr
          45 107 87 115 30 24 hstemhm
          61 18 159 130 -2 12 hintmask 11011010
          hintmask 11011100
          50 293 rmoveto
          hintmask 11011010
          -25 callgsubr
          hintmask 11011100
          21 callsubr
          hintmask 11111010
          -19 callsubr
          hintmask 11011100
          22 callgsubr
          hintmask 11011010
          58 -66 -5 callsubr
          endchar
        </CharString>
        <CharString name="u">
          -100 callsubr
          endchar
        </CharString>
        <CharString name="uacute">
          -100 callsubr
          -118 604 -95 callgsubr
        </CharString>
        <CharString name="ucircumflex">
          -60 callgsubr
          124 -64 callsubr
          256 -609 -102 callsubr
          endchar
        </CharString>
        <CharString name="udieresis">
          48 -11 58 -38 -52 callsubr
          52 62 callgsubr
          85 185 -87 19 callgsubr
          -94 185 hintmask 0110010010000000
          575 25 rmoveto
          hintmask 0101010010000000
          60 callsubr
          hintmask 1010010010000000
          -80 callsubr
          hintmask 0101010010000000
          251 vlineto
          hintmask 1010010010000000
          -54 callgsubr
          -16 45 callgsubr
          -121 35 -85 121 70 44 33 18 callsubr
          hintmask 0110010010000000
          -78 251 16 vlineto
          hintmask 0110110100000000
          -274 556 -103 callsubr
          vhcurveto
          hintmask 0110101010000000
          -73 callgsubr
          hvcurveto
          hintmask 0110110100000000
          -33 -16 callgsubr
          hvcurveto
          endchar
        </CharString>
        <CharString name="ugrave">
          -100 callsubr
          -463 586 -83 callsubr
        </CharString>
        <CharString name="uhungarumalut">
          -599 endchar
        </CharString>
        <CharString name="underscore">
          -161 -214 21 hstem
          -26 494 vstem
          468 -193 rmoveto
          -494 -21 494 hlineto
          endchar
        </CharString>
        <CharString name="v">
          -90 47 callgsubr
          46 148 44 19 hintmask 11011100
          272 50 callsubr
          hintmask 10111100
          -62 callsubr
          hintmask 11011100
          10 callgsubr
          vhcurveto
          endchar
        </CharString>
        <CharString name="w">
          243 47 callgsubr
          140 194 46 148 44 19 hintmask 11011110
          606 50 callsubr
          hintmask 10111110
          -62 callsubr
          hintmask 11011110
          0 callgsubr
          -104 14 -98 33 -74 vhcurveto
          -31 -19 -23 -19 -26 hhcurveto
          -71 -48 127 245 hvcurveto
          hintmask 10111110
          44 vlineto
          hintmask 11011110
          10 callgsubr
          69 55 44 63 38 vhcurveto
          -66 37 55 -41 80 hhcurveto
          endchar
        </CharString>
        <CharString name="x">
          -10 -10 18 19 139 146 139 19 18 hstemhm
          10 157 -157 565 -170 157 hintmask 10010100
          413 -10 rmoveto
          88 56 63 47 18 hvcurveto
          -17 4 rlineto
          0 -18 -41 -21 -20 -8 4 135 -62 vhcurveto
          -75 161 -1 2 -2 2 -1 3 rlinecurve
          hintmask 10010010
          55 25 46 45 44 hhcurveto
          11 7 -2 -8 hvcurveto
          hintmask 10110010
          -7 -6 -2 -6 vhcurveto
          -43 -3 -23 -32 -31 vvcurveto
          -36 27 -37 49 53 28 43 43 vhcurveto
          hintmask 10011010
          51 -38 39 -59 -53 -46 -44 -54 -26 vhcurveto
          68 -37 -42 30 -72 hhcurveto
          -88 -50 -62 -49 -20 hvcurveto
          18 -3 rlineto
          0 18 44 31 23 11 -24 -104 49 vhcurveto
          63 -135 -11 -28 -11 -25 -11 -18 rlinecurve
          -61 -35 -40 -15 -29 hhcurveto
          -11 -7 2 8 hvcurveto
          hintmask 11011000
          7 6 2 6 vhcurveto
          43 3 23 32 31 vvcurveto
          36 -27 37 -49 -53 -28 -43 -43 vhcurveto
          hintmask 10011000
          -51 38 -39 59 44 41 26 59 35 vhcurveto
          9 15 9 20 9 22 9 -17 rcurveline
          hintmask 10010100
          -87 41 30 -38 79 hhcurveto
          endchar
        </CharString>
        <CharString name="y">
          -81 33 callgsubr
          hstemhm
          57 20 callsubr
          386 -98 callsubr
          endchar
        </CharString>
        <CharString name="yacute">
          -89 33 callgsubr
          hstemhm
          28 20 callsubr
          357 -98 callsubr
          25 141 -95 callgsubr
        </CharString>
        <CharString name="ydieresis">
          -89 33 callgsubr
          32 62 callgsubr
          28 194 -133 121 -59 18 29 147 -76 121 -119 146 39 18 hintmask 0100001000100000
          hintmask 0010100001100000
          357 -90 callgsubr
          hintmask 0100100000100000
          -41 callsubr
          hintmask 1100001000100000
          3 callgsubr
          hintmask 1100001100100000
          -67 callsubr
          hintmask 0100001000100000
          -35 callgsubr
          hintmask 0010100001100000
          80 -36 69 -81 vhcurveto
          hintmask 0101010010100000
          -88 93 -106 callsubr
        </CharString>
        <CharString name="yen">
          -51 9 16 109 16 44 16 262 16 hstem
          174 45 callsubr
          108 vstem
          81 194 rmoveto
          93 -44 -93 -16 93 -109 -52 -16 293 16 -52 109 101 16 -101 44 101 16 -101 11 hlineto
          92 210 rlineto
          28 12 28 13 43 hhcurveto
          16 -193 -16 18 vlineto
          49 18 -13 -28 -15 -4 -10 -8 -18 hvcurveto
          -63 -145 -106 229 rlineto
          54 16 -293 -16 41 hlineto
          123 -262 rlineto
          -93 hlineto
          endchar
        </CharString>
        <CharString name="z">
          -98 callgsubr
          endchar
        </CharString>
        <CharString name="zcaron">
          -98 callgsubr
          109 610 -80 callgsubr
        </CharString>
        <CharString name="zero">
          -31 -8 callgsubr
          hstem
          30 196 116 196 vstem
          284 488 rmoveto
          -152 -102 -100 -149 -149 102 -100 152 152 102 100 149 149 -102 100 -152 hvcurveto
          -480 vmoveto
          -48 -10 105 126 126 10 105 48 47 11 -105 -126 -127 -10 -104 -48 hvcurveto
          endchar
        </CharString>
      <CharString index="0">
        -69 callsubr
        hstemhm
        30 -37 callsubr
        67 18 hintmask 1010101110000000
        -49 callsubr
        vhcurveto
        40 callgsubr
        -90 callsubr
        hintmask 0111101110000000
        -107 callsubr
        40 callgsubr
        -84 callgsubr
        return
      </CharString>
      <CharString index="1">
        -101 callgsubr
        hintmask 10010110
        -58 callsubr
        hintmask 11011010
        -101 callsubr
        hintmask 10010110
        -17 callgsubr
        hintmask 10110101
        19 callsubr
        return
      </CharString>
      <CharString index="2">
        rmoveto
        157 107 100 149 149 -107 100 -157 -157 -107 -100 -149 -149 107 -100 157 hvcurveto
        62 249 rmoveto
        -172 -15 -59 -47 -61 callgsubr
        47 15 -59 -172 vhcurveto
        return
      </CharString>
      <CharString index="3">
        -63 callsubr
        373 -10 rmoveto
        -26 callgsubr
        -84 callsubr
        hvcurveto
        19 vmoveto
        -79 -42 70 278 -46 callsubr
        7 callsubr
        hvcurveto
        return
      </CharString>
      <CharString index="4">
        -45 34 -39 55 38 38 31 45 36 -24 36 -40 -42 -13 -36 0 vhcurveto
        -6 -3 -1 -9 -9 -12 callgsubr
        6 41 67 42 77 106 2 -91 -73 hvcurveto
        return
      </CharString>
      <CharString index="5">
        -100 callgsubr
        -16 return
      </CharString>
      <CharString index="6">
        rmoveto
        87 38 -39 -15 -6 -5 -3 -4 -6 -4 5 6 -5 hvcurveto
        8 -7 -11 10 -24 hhcurveto
        -39 -26 -31 -38 -46 35 -30 41 55 30 42 46 62 -55 49 -129 -176 -65 -69 -76 hvcurveto
        return
      </CharString>
      <CharString index="7">
        -14 -67 -64 -87 callsubr
        return
      </CharString>
      <CharString index="8">
        -86 callgsubr
        39 113 rlineto
        163 hlineto
        80 -226 rlineto
        -68 -16 322 -27 callsubr
        return
      </CharString>
      <CharString index="9">
        -61 -10 18 13 -21 41 148 100 148 33 18 hstemhm
        32 27 442 27 hintmask 10011110
        380 8 rmoveto
        -33 -60 10 6 -50 hvcurveto
        273 435 rlineto
        14 vlineto
        -2 -12 -27 -4 -58 -94 -87 21 -52 hhcurveto
        -91 -57 -46 -69 -45 34 -39 55 40 36 29 47 36 -24 36 -42 -36 -9 -21 -12 -8 hvcurveto
        -5 -3 -2 -3 -5 -12 callgsubr
        6 3 1 5 2 3 hvcurveto
        29 16 29 25 73 hhcurveto
        33 43 -8 -6 50 hvcurveto
        hintmask 01011110
        -277 -442 rlineto
        -14 vlineto
        hintmask 10111110
        3 17 39 8 61 94 88 -21 52 hhcurveto
        91 57 46 69 45 -34 39 -55 -38 -38 -31 -45 -36 24 -36 42 36 9 21 12 8 hvcurveto
        5 3 2 3 5 hhcurveto
        4 5 -3 -6 -3 -1 -5 -2 -3 hvcurveto
        hintmask 10011110
        -29 -16 -29 -25 -73 hhcurveto
        return
      </CharString>
      <CharString index="10">
        -59 callgsubr
        -16 vlineto
        -94 -37 -69 -115 hvcurveto
        -198 vlineto
        -212 -54 -100 -196 -247 -42 136 223 vhcurveto
        335 -64 16 332 -16 -64 -328 vlineto
        -147 8 -187 138 151 20 139 142 vhcurveto
        197 6 callsubr
        16 vlineto
        return
      </CharString>
      <CharString index="11">
        -10 -105 callgsubr
        return
      </CharString>
      <CharString index="12">
        rmoveto
        -298 -82 5 -17 298 81 rlineto
        endchar
      </CharString>
      <CharString index="13">
        rmoveto
        179 -74 6 17 -185 77 rlineto
        0 vmoveto
        -185 -77 6 -17 179 74 rlineto
        endchar
      </CharString>
      <CharString index="14">
        -102 callgsubr
        71 return
      </CharString>
      <CharString index="15">
        rmoveto
        61 38 38 0 hvcurveto
        -14 15 rlineto
        0 -33 -33 -49 vhcurveto
        -56 -30 32 -67 hhcurveto
        return
      </CharString>
      <CharString index="16">
        -89 callgsubr
        44 26 33 40 45 -34 33 -46 -56 -31 -44 -49 hvcurveto
        return
      </CharString>
      <CharString index="17">
        488 rmoveto
        -48 -38 -34 -51 -42 32 -35 43 39 32 27 43 22 -13 19 -21 10 hvcurveto
        -7 3 -2 2 5 -9 callgsubr
        10 17 -11 -6 6 vhcurveto
        28 -24 12 -39 -44 vvcurveto
        -49 -8 -44 -15 -34 vhcurveto
        -62 -28 -31 -36 -41 hhcurveto
        -40 -71 76 210 39 2 46 0 hvcurveto
        return
      </CharString>
      <CharString index="18">
        -4 6 -2 4 5 vvcurveto
        6 4 3 5 7 3 -8 -7 6 vhcurveto
        -7 6 15 -13 23 hhcurveto
        return
      </CharString>
      <CharString index="19">
        9 -11 callsubr
        197 28 hintmask 10011000
        270 407 rmoveto
        81 vlineto
        hintmask 10101000
        -39 callgsubr
        -62 69 callsubr
        -75 199 hlineto
        hintmask 10011100
        4 callgsubr
        hintmask 11011100
        -86 callsubr
        hintmask 10011100
        49 callgsubr
        hintmask 10011000
        -54 -39 -35 -46 -20 hvcurveto
        return
      </CharString>
      <CharString index="20">
        -81 8 -26 20 -28 vhcurveto
        -35 26 39 -20 61 hhcurveto
        111 15 62 82 10 37 callgsubr
        -15 -42 -16 hhcurveto
        -11 -11 9 45 hvcurveto
        16 vlineto
        110 -8 return
      </CharString>
      <CharString index="21">
        -78 -27 -15 -42 -83 hhcurveto
        -16 256 16 -33 vlineto
        -66 -24 24 38 15 3 17 7 19 hvcurveto
        return
      </CharString>
      <CharString index="22">
        121 -35 85 -121 47 callsubr
        vhcurveto
        -72 callgsubr
        hlineto
        endchar
      </CharString>
      <CharString index="23">
        -47 callgsubr
        -100 85 -32 83 104 32 52 62 16 hvcurveto
        return
      </CharString>
      <CharString index="24">
        -75 callgsubr
        -151 hmoveto
        -47 callsubr
        139 -89 94 -120 -120 -89 -94 -139 vhcurveto
        return
      </CharString>
      <CharString index="25">
        13 callgsubr
        65 callsubr
        hintmask 11010000
        -31 callsubr
        hintmask 11100000
        -99 callgsubr
        hintmask 11010000
        -63 callgsubr
        return
      </CharString>
      <CharString index="26">
        116 505 rmoveto
        20 -1 15 -3 14 vhcurveto
        300 -472 34 callsubr
        456 hlineto
        132 4 84 109 3 vhcurveto
        12 16 -291 -16 33 hlineto
        109 4 -75 -143 hvcurveto
        -246 -4 -15 callgsubr
        -16 hlineto
        45 26 -46 -26 15 hvcurveto
        9 -20 12 -35 -48 vvcurveto
        -392 vlineto
        -48 -25 -27 -22 -11 vhcurveto
        return
      </CharString>
      <CharString index="27">
        rmoveto
        -6 17 -179 -72 -180 72 -6 -17 186 -77 rlineto
        endchar
      </CharString>
      <CharString index="28">
        19 -149 rmoveto
        -58 5 40 -56 71 hhcurveto
        92 36 39 callgsubr
        return
      </CharString>
      <CharString index="29">
        24 -8 -17 16 -30 hhcurveto
        -40 -27 -31 -41 -43 34 -33 45 52 33 38 52 return
      </CharString>
      <CharString index="30">
        -77 callsubr
        -14 hlineto
        -157 -33 -114 44 callsubr
        338 33 hlineto
        85 54 -49 -98 hvcurveto
        14 305 -14 hlineto
        -106 -56 -38 -79 vhcurveto
        -37 311 44 callgsubr
        50 -73 -141 hvcurveto
        14 228 -567 -14 64 -663 -64 hlineto
        return
      </CharString>
      <CharString index="31">
        -93 callgsubr
        -442 hlineto
        91 7 43 -59 -58 vvcurveto
        -24 callgsubr
        vhcurveto
        return
      </CharString>
      <CharString index="32">
        178 26 37 32 32 26 -35 -180 -179 -26 -35 -32 -32 -26 33 181 vhcurveto
        return
      </CharString>
      <CharString index="33">
        -61 callsubr
        hintmask 10110000
        60 callsubr
        hintmask 11010000
        -72 callsubr
        return
      </CharString>
      <CharString index="34">
        33 28 28 33 33 -28 27 -33 return
      </CharString>
      <CharString index="35">
        -5 319 -76 callsubr
        return
      </CharString>
      <CharString index="36">
        13 -22 -27 6 -24 hhcurveto
        -114 -55 -79 -132 hvcurveto
        -39 -59 callsubr
        -57 vlineto
        -89 -59 49 76 hvcurveto
        return
      </CharString>
      <CharString index="37">
        6 -3 4 -3 -5 vvcurveto
        -4 73 callgsubr
        -2 -4 1 2 -5 vhcurveto
        -46 19 -18 47 44 vvcurveto
        29 7 29 13 25 vhcurveto
        33 64 79 33 39 11 rrcurveto
        return
      </CharString>
      <CharString index="38">
        701 rmoveto
        12 11 -2 -2 10 hvcurveto
        -70 -11 -27 -41 -50 vvcurveto
        -53 41 -39 55 49 49 35 64 vhcurveto
        return
      </CharString>
      <CharString index="39">
        rmoveto
        6 -17 179 72 180 -72 6 17 -186 77 rlineto
        return
      </CharString>
      <CharString index="40">
        5 callsubr
        -28 callgsubr
        vhcurveto
        -70 callsubr
        endchar
      </CharString>
      <CharString index="41">
        -61 47 -49 61 55 44 39 56 52 -33 38 -55 -49 -20 -30 -17 -5 hvcurveto
        -22 callsubr
        1 4 1 4 hvcurveto
        return
      </CharString>
      <CharString index="42">
        -62 -16 62 -428 -62 72 callsubr
        -75 return
      </CharString>
      <CharString index="43">
        -175 -9 callsubr
        hstem
        104 204 vstem
        -60 callsubr
        return
      </CharString>
      <CharString index="44">
        -83 -12 -55 -27 -9 hvcurveto
        -30 -147 rmoveto
        76 -217 rlineto
        -153 hlineto
        return
      </CharString>
      <CharString index="45">
        -180 hmoveto
        -33 27 -28 33 return
      </CharString>
      <CharString index="46">
        -47 -15 59 172 172 15 59 47 return
      </CharString>
      <CharString index="47">
        38 -11 58 -38 17 callgsubr
        75 185 24 callgsubr
        hintmask 01101100
        return
      </CharString>
      <CharString index="48">
        135 -52 callgsubr
        764 700 rmoveto
        return
      </CharString>
      <CharString index="49">
        -8 -1 6 7 hvcurveto
        40 -3 -32 25 -31 hhcurveto
        -30 -41 -23 -53 -33 27 -46 54 return
      </CharString>
      <CharString index="50">
        -48 -42 -30 -54 -43 31 -35 45 40 30 26 39 23 -13 15 -7 6 hvcurveto
        return
      </CharString>
      <CharString index="51">
        204 192 19 72 19 3 19 vstem
        return
      </CharString>
      <CharString index="52">
        -60 6 -64 -68 hhcurveto
        -32 -14 30 16 hvcurveto
        39 65 49 61 vvcurveto
        41 -33 33 -41 -41 -33 -33 -41 vhcurveto
        -61 65 -49 -39 vvcurveto
        -16 -14 -30 -32 vhcurveto
        -68 6 64 -60 12 callgsubr
        return
      </CharString>
      <CharString index="53">
        -14 -67 -60 -87 callsubr
        return
      </CharString>
      <CharString index="54">
        -23 callsubr
        38 -28 callsubr
        return
      </CharString>
      <CharString index="55">
        -18 37 666 19 hstem
        50 callgsubr
        321 25 vstem
        return
      </CharString>
      <CharString index="56">
        hintmask 1111111010000000
        -50 34 -49 61 34 callgsubr
        -43 -20 -29 -26 -3 vhcurveto
        2 callsubr
        60 callgsubr
        51 38 32 51 59 42 -47 -55 -112 return
      </CharString>
      <CharString index="57">
        -14 callgsubr
        20 127 136 -119 1 -20 hvcurveto
        -1 4 rlineto
        return
      </CharString>
      <CharString index="58">
        0 19 337 19 310 19 hstem
        return
      </CharString>
      <CharString index="59">
        -30 -26 30 72 86 55 28 63 -3 return
      </CharString>
      <CharString index="60">
        -33 vlineto
        -92 -215 -9 -140 return
      </CharString>
      <CharString index="61">
        1 -4 1 -3 -4 vvcurveto
        -5 73 callgsubr
        return
      </CharString>
      <CharString index="62">
        453 67 callgsubr
        return
      </CharString>
      <CharString index="63">
        -78 -99 vhcurveto
        -28 -14 52 -319 49 callsubr
        66 callsubr
        vhcurveto
        -91 callsubr
        367 93 14 -93 vlineto
        252 return
      </CharString>
      <CharString index="64">
        -4 callgsubr
        hvcurveto
        -72 callgsubr
        71 return
      </CharString>
      <CharString index="65">
        -203 -164 -164 -203 -203 164 -164 203 63 60 16 28 52 return
      </CharString>
      <CharString index="66">
        25 -13 19 -18 12 vhcurveto
        6 callgsubr
        hintmask 01010100
        -40 callsubr
        return
      </CharString>
      <CharString index="67">
        -2 -29 hhcurveto
        -32 hlineto
        -94 -52 -27 -30 -14 vhcurveto
        8 -18 rlineto
        0 52 17 21 41 vhcurveto
        return
      </CharString>
      <CharString index="68">
        -93 callgsubr
        -428 return
      </CharString>
      <CharString index="69">
        -56 45 -44 60 127 27 120 94 vhcurveto
        return
      </CharString>
      <CharString index="70">
        rmoveto
        -45 36 -36 45 46 36 36 45 46 -36 36 -46 -45 -36 -36 -46 vhcurveto
        21 hmoveto
        34 27 26 33 34 26 -26 -34 -33 -26 -27 -34 -33 -27 27 33 vhcurveto
        return
      </CharString>
      <CharString index="71">
        rmoveto
        -52 42 -42 52 54 41 42 52 return
      </CharString>
      <CharString index="72">
        -23 13 -25 22 51 vvcurveto
        100 132 53 71 61 vhcurveto
        70 60 32 84 94 vvcurveto
        return
      </CharString>
      <CharString index="73">
        112 -99 rmoveto
        -51 -40 -30 -39 -56 -23 39 37 vhcurveto
        return
      </CharString>
      <CharString index="74">
        -89 callgsubr
        39 27 31 40 45 -35 30 -43 -54 -31 -42 -48 return
      </CharString>
      <CharString index="75">
        18 163 16 1 18 hstemhm
        73 189 -84 18 158 18 60 189 return
      </CharString>
      <CharString index="76">
        -57 hhcurveto
        -187 -152 32 callsubr
        153 187 return
      </CharString>
      <CharString index="77">
        131 54 -87 -52 -6 -4 -4 -7 -3 -5 2 7 -1 hvcurveto
        31 -5 -14 50 -67 hhcurveto
        -58 -29 -46 -45 -55 37 -47 64 93 19 73 37 return
      </CharString>
      <CharString index="78">
        -44 35 -44 56 44 42 30 50 36 -17 20 -25 11 vhcurveto
        -5 2 -6 3 7 vvcurveto
        4 3 4 5 7 9 -4 -5 9 vhcurveto
        28 -17 return
      </CharString>
      <CharString index="79">
        -60 -46 -42 -62 -45 36 -47 56 45 42 31 52 37 -16 24 -25 10 return
      </CharString>
      <CharString index="80">
        36 -14 27 -20 19 vhcurveto
        24 16 -46 hlineto
        -1 hlineto
        return
      </CharString>
      <CharString index="81">
        239 104 191 176 return
      </CharString>
      <CharString index="82">
        328 142 -12 hlineto
        -24 -1 -11 -11 -28 hhcurveto
        -128 hlineto
        -70 -9 -17 -16 -19 hvcurveto
        -5 4 29 51 74 7 47 5 rlinecurve
        return
      </CharString>
      <CharString index="83">
        -54 -34 -53 -65 -26 -27 11 24 -18 return
      </CharString>
      <CharString index="84">
        -129 -25 -99 -27 -50 hhcurveto
        -67 -39 40 132 hvcurveto
        16 83 vlineto
        116 104 23 110 116 -128 40 -115 return
      </CharString>
      <CharString index="85">
        69 28 35 40 55 vvcurveto
        60 -43 43 -52 vhcurveto
        return
      </CharString>
      <CharString index="86">
        48 159 25 18 hstemhm
        72 189 52 19 return
      </CharString>
      <CharString index="87">
        234 684 rmoveto
        87 16 -361 -16 58 hlineto
        188 -402 rlineto
        -257 -64 -16 332 16 -64 273 vlineto
        return
      </CharString>
      <CharString index="88">
        20 callgsubr
        16 return
      </CharString>
      <CharString index="89">
        rmoveto
        119 159 -17 13 -129 -172 rlineto
        0 vmoveto
        12 callsubr
        rlineto
        endchar
      </CharString>
      <CharString index="90">
        151 -281 11 100 vvcurveto
        return
      </CharString>
      <CharString index="91">
        -27 -27 -33 return
      </CharString>
      <CharString index="92">
        vlineto
        -253 407 rlineto
        67 -42 -33 6 -48 hhcurveto
        -205 return
      </CharString>
      <CharString index="93">
        -2 15 rlineto
        -5 -8 -1 -7 hhcurveto
        -29 -25 return
      </CharString>
      <CharString index="94">
        -10 19 37 144 98 145 return
      </CharString>
      <CharString index="95">
        hhcurveto
        -4 -5 3 return
      </CharString>
      <CharString index="96">
        90 453 -61 callsubr
        return
      </CharString>
      <CharString index="97">
        -6 callgsubr
        5 callgsubr
        return
      </CharString>
      <CharString index="98">
        vvcurveto
        15 callgsubr
        5 return
      </CharString>
      <CharString index="99">
        -10 18 462 18 return
      </CharString>
      <CharString index="100">
        hmoveto
        -75 callgsubr
        return
      </CharString>
      <CharString index="101">
        26 2 20 2 0 vvcurveto
        39 -2 6 -56 -29 vvcurveto
        return
      </CharString>
      <CharString index="102">
        -17 -11 -42 -30 -52 hhcurveto
        -32 -39 12 30 -28 hvcurveto
        return
      </CharString>
      <CharString index="103">
        -134 47 callsubr
        return
      </CharString>
      <CharString index="104">
        124 202 return
      </CharString>
      <CharString index="105">
        -91 290 hlineto
        -7 -32 -19 -4 -44 hhcurveto
        -11 -130 -128 -138 -68 -33 rrcurveto
        return
      </CharString>
      <CharString index="106">
        rmoveto
        -54 43 -43 54 55 43 43 54 55 -43 43 -55 -54 -43 -43 -55 vhcurveto
        endchar
      </CharString>
      <CharString index="107">
        -14 -67 -69 -24 callsubr
        -55 hlineto
        return
      </CharString>
      <CharString index="108">
        -134 -40 -53 -80 -88 vvcurveto
        -72 41 -63 83 return
      </CharString>
      <CharString index="109">
        14 callsubr
        484 16 19 -20 return
      </CharString>
      <CharString index="110">
        -44 -35 -41 -40 -66 vvcurveto
        -69 49 -42 58 vhcurveto
        return
      </CharString>
      <CharString index="111">
        158 39 88 84 37 22 -20 -12 9 vhcurveto
        return
      </CharString>
      <CharString index="112">
        -102 11 -98 7 callgsubr
        return
      </CharString>
      <CharString index="113">
        -4 3 -3 2 6 vvcurveto
        4 69 callgsubr
        return
      </CharString>
      <CharString index="114">
        138 43 46 8 4 36 vhcurveto
        return
      </CharString>
      <CharString index="115">
        45 callsubr
        18 return
      </CharString>
      <CharString index="116">
        rmoveto
        -119 -159 17 -13 129 172 -129 172 -17 -13 rlineto
        return
      </CharString>
      <CharString index="117">
        0 callgsubr
        -215 60 -193 172 return
      </CharString>
      <CharString index="118">
        hhcurveto
        41 33 33 41 41 -33 33 -41 hvcurveto
        return
      </CharString>
      <CharString index="119">
        hhcurveto
        -41 -33 -33 -41 -41 33 -33 41 hvcurveto
        return
      </CharString>
      <CharString index="120">
        13 9 16 226 14 return
      </CharString>
      <CharString index="121">
        -66 -16 323 16 -68 return
      </CharString>
      <CharString index="122">
        5 4 4 return
      </CharString>
      <CharString index="123">
        67 25 rmoveto
        0 51 33 56 93 vhcurveto
        2 -129 -109 hlineto
        endchar
      </CharString>
      <CharString index="124">
        -52 callsubr
        hstemhm
        return
      </CharString>
      <CharString index="125">
        -4 callsubr
        vstem
        return
      </CharString>
      <CharString index="126">
        121 59 121 return
      </CharString>
      <CharString index="127">
        16 428 return
      </CharString>
      <CharString index="128">
        rmoveto
        82 14 51 47 47 13 -62 -61 -93 -36 -37 -68 vhcurveto
        -17 hlineto
        return
      </CharString>
      <CharString index="129">
        41 40 33 51 47 21 -36 -34 vhcurveto
        -105 -188 -15 -149 vvcurveto
        return
      </CharString>
      <CharString index="130">
        rmoveto
        46 12 135 48 137 vvcurveto
        return
      </CharString>
      <CharString index="131">
        120 185 return
      </CharString>
      <CharString index="132" raw="1">
        c10a860b   
      </CharString>
      <CharString index="133">
        185 120 return
      </CharString>
      <CharString index="134">
        hlineto
        hintmask 10101000
        -51 -150 rlineto
        22 hlineto
        hintmask 01101000
        51 150 rlineto
        return
      </CharString>
      <CharString index="135">
        -191 -523 rmoveto
        176 -113 126 113 91 31 return
      </CharString>
      <CharString index="136">
        113 142 13 70 39 37 39 -60 -125 vhcurveto
        endchar
      </CharString>
      <CharString index="137">
        -10 18 227 18 184 18 136 18 73 18 hstem
        return
      </CharString>
      <CharString index="138">
        78 6 35 35 38 vvcurveto
        52 -51 31 -92 -67 -55 -30 -54 return
      </CharString>
      <CharString index="139">
        -5 hlineto
        47 -23 -41 24 -62 hhcurveto
        -144 -51 -105 -144 return
      </CharString>
      <CharString index="140">
        -226 23 656 16 -3 22 return
      </CharString>
      <CharString index="141">
        47 37 40 42 39 -29 38 -44 return
      </CharString>
      <CharString index="142">
        204 154 212 59 18 return
      </CharString>
      <CharString index="143">
        28 -17 18 -28 -37 vvcurveto
        return
      </CharString>
      <CharString index="144">
        hvcurveto
        -54 callsubr
        return
      </CharString>
      <CharString index="145">
        146 -123 198 return
      </CharString>
      <CharString index="146">
        65 90 11 hvcurveto
        return
      </CharString>
      <CharString index="147">
        hintmask 1010110110000000
        return
      </CharString>
      <CharString index="148">
        24 21 109 26 23 15 115 20 20 hstemhm
        return
      </CharString>
      <CharString index="149">
        30 vstem
        472 50 rmoveto
        -478 -21 478 hlineto
        return
      </CharString>
      <CharString index="150">
        29 -8 30 -30 -49 vvcurveto
        -32 -20 -45 -17 -40 vhcurveto
        return
      </CharString>
      <CharString index="151">
        75 hlineto
        160 return
      </CharString>
      <CharString index="152">
        71 -258 hlineto
        return
      </CharString>
      <CharString index="153">
        189 68 38 callgsubr
        -54 18 return
      </CharString>
      <CharString index="154">
        -10 82 381 16 -1 20 hstemhm
        40 194 return
      </CharString>
      <CharString index="155">
        hhcurveto
        -5 -4 4 5 return
      </CharString>
      <CharString index="156">
        52 -43 43 -60 vhcurveto
        return
      </CharString>
      <CharString index="157">
        94 204 return
      </CharString>
      <CharString index="158">
        rmoveto
        -248 -85 6 -17 248 85 rlineto
        return
      </CharString>
      <CharString index="159">
        -33 -2 -14 -14 -38 hhcurveto
        return
      </CharString>
      <CharString index="160">
        -4 178 rmoveto
        return
      </CharString>
      <CharString index="161">
        719 rmoveto
        return
      </CharString>
      <CharString index="162">
        vvcurveto
        -41 33 -33 41 41 33 33 41 return
      </CharString>
      <CharString index="163">
        -293 -214 16 882 16 hstem
        return
      </CharString>
      <CharString index="164">
        700 rmoveto
        -212 19 212 vlineto
        return
      </CharString>
      <CharString index="165">
        -48 31 -42 54 43 35 30 45 40 return
      </CharString>
      <CharString index="166">
        -156 74 callgsubr
        873 16 hstem
        return
      </CharString>
      <CharString index="167">
        hintmask 1101111010000000
        return
      </CharString>
      <CharString index="168">
        227 21 return
      </CharString>
      <CharString index="169">
        121 hstemhm
        return
      </CharString>
      <CharString index="170">
        28 38 189 -185 189 return
      </CharString>
      <CharString index="171">
        30 36 23 37 33 31 -18 -53 return
      </CharString>
      <CharString index="172">
        -25 -12 -26 hvcurveto
        -95 -218 rlineto
        return
      </CharString>
      <CharString index="173">
        9 16 413 50 return
      </CharString>
      <CharString index="174">
        rmoveto
        -13 callsubr
        return
      </CharString>
      <CharString index="175">
        190 0 -20 hstemhm
        return
      </CharString>
      <CharString index="176">
        4 4 5 vhcurveto
        return
      </CharString>
      <CharString index="177">
        -118 -78 vhcurveto
        return
      </CharString>
      <CharString index="178">
        65 344 hstem
        return
      </CharString>
      <CharString index="179">
        -62 -16 247 return
      </CharString>
      <CharString index="180">
        -3 -5 -6 return
      </CharString>
      <CharString index="181">
        -205 16 return
      </CharString>
</ttFont>
